<svg width="94" height="143" viewBox="0 0 94 143" fill="none" xmlns="http://www.w3.org/2000/svg">
<path id="a" d="M87.0766 0.361572C89.3578 0.517822 90.9672 1.36157 91.9047 2.89282C92.8422 4.39282 93.3422 6.17407 93.4047 8.23657C93.4672 10.2991 93.3578 12.2053 93.0766 13.9553C91.9203 20.9241 90.3266 27.7678 88.2953 34.4866C88.1703 34.9241 88.0453 35.3772 87.9203 35.8459C86.7328 40.0022 85.5297 44.1584 84.3109 48.3147C81.9047 56.3772 79.6078 64.4553 77.4203 72.5491C78.0141 72.6116 78.5922 72.6741 79.1547 72.7366C79.6234 72.8616 79.9047 73.1116 79.9984 73.4866C80.1234 73.8303 80.0766 74.1584 79.8578 74.4709C79.6391 74.7834 79.2953 74.9084 78.8266 74.8459C78.1703 74.7209 77.5297 74.6116 76.9047 74.5178C75.7797 78.7053 74.7328 82.9241 73.7641 87.1741C71.9828 94.9866 70.5922 102.893 69.5922 110.893C68.5922 118.924 68.8109 126.908 70.2484 134.846C70.5609 136.221 70.9516 137.549 71.4203 138.83C71.6391 139.487 71.6234 140.096 71.3734 140.658C71.1234 141.221 70.6859 141.627 70.0609 141.877C69.4047 142.096 68.7797 142.049 68.1859 141.737C67.5922 141.455 67.1859 140.971 66.9672 140.283C66.5609 138.752 66.2328 137.205 65.9828 135.643C65.2641 130.393 65.1234 125.112 65.5609 119.799C65.9984 114.518 66.6859 109.283 67.6234 104.096C69.4984 94.0022 71.7797 84.0022 74.4672 74.0959C63.4984 72.3459 52.4359 71.5803 41.2797 71.7991C35.0922 80.5803 29.1859 88.9397 23.5609 96.8772C17.9672 104.815 13.3422 111.362 9.68594 116.518C6.06094 121.705 4.24844 124.299 4.24844 124.299C3.59219 125.08 2.85781 125.393 2.04531 125.237C1.26406 125.112 0.670312 124.69 0.264062 123.971C-0.142188 123.283 -0.0796875 122.487 0.451562 121.58C0.732812 121.143 4.24844 116.143 10.9984 106.58C17.7484 97.0178 25.8891 85.4709 35.4203 71.9397C33.2641 72.0334 31.1078 72.1584 28.9516 72.3147C21.9516 72.8147 15.0766 74.0803 8.32656 76.1116C7.20156 76.3616 6.35781 76.1428 5.79531 75.4553C5.26406 74.7678 5.09219 74.0022 5.27969 73.1584C5.49844 72.2834 6.18594 71.7366 7.34219 71.5178C17.1547 70.5178 26.9828 70.0022 36.8266 69.9709C40.6078 64.5647 44.4047 59.1584 48.2172 53.7522C58.1859 39.6272 66.7484 27.4866 73.9047 17.3303C81.0922 7.14282 84.8578 1.79907 85.2016 1.29907C85.7016 0.674072 86.3266 0.361572 87.0766 0.361572ZM85.1078 35.0491C85.1703 34.8303 85.2484 34.5334 85.3422 34.1584C85.8734 32.0959 86.5922 28.9866 87.4984 24.8303C88.4047 20.6741 89.0141 16.6741 89.3266 12.8303C89.6703 8.98657 89.2641 6.5022 88.1078 5.3772C87.1703 6.65845 82.2641 13.5959 73.3891 26.1897C64.5141 38.7834 54.2328 53.3928 42.5453 70.0178C53.3891 70.1741 64.2016 70.9084 74.9828 72.2209C76.3266 67.2522 77.6859 62.2991 79.0609 57.3616C81.1547 49.9553 83.1703 42.5178 85.1078 35.0491Z" fill="black"/>
</svg>
