<svg width="172" height="140" viewBox="0 0 172 140" fill="none" xmlns="http://www.w3.org/2000/svg">
<path id="b" d="M151.471 7.78345C145.628 7.6897 139.768 7.76782 133.893 8.01782C122.831 8.45532 109.815 9.73657 94.8465 11.8616C95.8777 9.54907 96.9246 7.26782 97.9871 5.01782C98.4246 3.79907 98.3308 2.8147 97.7058 2.0647C97.0496 1.3147 96.2215 0.939697 95.2215 0.939697C94.2215 0.970947 93.4246 1.53345 92.8308 2.6272C91.2683 6.03345 89.7527 9.47095 88.284 12.9397C79.409 14.4709 71.034 16.5178 63.159 19.0803C55.3152 21.6428 48.784 24.8303 43.5652 28.6428C41.5027 30.2053 39.8308 32.1428 38.5496 34.4553C37.2683 36.7991 36.8621 39.2991 37.3308 41.9553C38.3933 45.9553 40.0183 49.6897 42.2058 53.1584C44.4246 56.6272 46.8152 59.9866 49.3777 63.2366C51.0027 65.2991 52.5496 67.3772 54.0183 69.4709C58.6746 75.5022 62.2371 81.6584 64.7058 87.9397C63.4558 93.9084 62.3465 99.8928 61.3777 105.893C60.284 112.643 59.3777 119.408 58.659 126.19C58.6277 126.408 58.5965 126.752 58.5652 127.221L58.4715 127.83C58.4715 128.049 58.4558 128.221 58.4246 128.346C58.3308 129.252 58.5652 129.987 59.1277 130.549C59.6902 131.112 60.3621 131.408 61.1433 131.44C61.9246 131.471 62.6121 131.143 63.2058 130.455C67.5808 122.549 70.0652 115.299 70.659 108.705C71.284 102.112 70.6433 96.0491 68.7371 90.5178C74.6121 64.2366 82.9715 38.7991 93.8152 14.2053C95.9402 13.8928 97.7683 13.6428 99.2996 13.4553C110.8 12.1116 122.346 11.3459 133.94 11.1584C145.565 11.0022 157.096 11.8147 168.534 13.5959C169.19 13.6897 169.768 13.5334 170.268 13.1272C170.768 12.7522 171.065 12.2366 171.159 11.5803C171.221 10.9241 171.065 10.3459 170.69 9.84595C170.315 9.34595 169.8 9.04907 169.143 8.95532C163.237 8.26782 157.346 7.8772 151.471 7.78345ZM62.9715 122.955C64.0965 114.424 65.5183 105.94 67.2371 97.5022C68.5183 105.252 67.2215 113.44 63.3465 122.065L62.9715 122.955ZM65.7371 83.2522C63.8308 79.5334 61.6902 76.0022 59.3152 72.6584C56.909 69.3459 54.4871 66.1585 52.0496 63.096C48.5496 58.8147 45.5496 54.6897 43.0496 50.7209C40.5808 46.7834 39.2215 42.8616 38.9715 38.9553C39.4715 35.6116 41.3465 32.6272 44.5965 30.0022C47.8465 27.4084 51.909 25.1584 56.784 23.2522C61.659 21.3459 66.784 19.7209 72.159 18.3772C77.534 17.0647 82.5965 16.0178 87.3465 15.2366C81.5965 29.0178 76.6121 43.0803 72.3933 57.4241C69.8933 65.9553 67.6746 74.5647 65.7371 83.2522ZM129.3 37.4553C121.925 35.6428 114.487 35.2209 106.987 36.1897C99.4871 37.1584 92.1433 38.7209 84.9558 40.8772C73.6433 44.0647 62.8308 48.4866 52.5183 54.1428C45.7683 57.9553 38.9715 62.4866 32.1277 67.7366C25.284 73.0178 19.1589 78.9084 13.7527 85.4084C8.34645 91.9397 4.40895 98.9709 1.9402 106.502C0.1902 112.158 0.0339499 117.658 1.47145 123.002C2.8777 128.377 5.64332 132.658 9.76832 135.846C13.9246 139.065 19.1902 140.283 25.5652 139.502C26.5652 139.252 27.1746 138.737 27.3933 137.955C27.6121 137.174 27.4871 136.44 27.0183 135.752C26.5808 135.065 25.8465 134.768 24.8152 134.862C21.6277 135.393 18.5808 135.033 15.6746 133.783C12.7683 132.565 10.4246 130.596 8.64332 127.877C6.23707 124.002 5.0652 119.987 5.1277 115.83C5.1902 111.674 6.08082 107.565 7.79957 103.502C9.51832 99.4397 11.6902 95.5803 14.3152 91.9241C16.9402 88.2678 19.6433 85.0022 22.4246 82.1272C29.7058 74.6584 37.7058 68.0335 46.4246 62.2522C55.1433 56.471 64.2683 51.4709 73.7996 47.2522C81.4871 43.8772 89.4558 41.3928 97.7058 39.7991C104.331 38.4866 110.768 38.0334 117.018 38.4397C123.268 38.8459 128.706 40.3303 133.331 42.8928C137.956 45.4553 141.143 49.2991 142.893 54.4241C144.675 59.5491 144.409 66.1584 142.096 74.2522C139.69 82.0959 135.737 89.5959 130.237 96.7522C124.737 103.908 118.237 110.174 110.737 115.549C103.206 120.924 95.2058 124.862 86.7371 127.362C78.2683 129.862 69.8465 130.393 61.4715 128.955C60.6902 128.799 59.9246 128.627 59.1746 128.44L56.1746 127.596C52.0808 126.315 48.2527 124.471 44.6902 122.065C41.0965 119.69 38.0027 116.783 35.409 113.346C32.909 110.033 31.034 106.408 29.784 102.471C28.534 98.3147 27.9871 94.0959 28.1433 89.8147C27.8621 88.8147 27.3152 88.2209 26.5027 88.0334C25.7215 87.8459 25.0027 87.9866 24.3465 88.4553C23.6902 88.9553 23.4246 89.7209 23.5496 90.7522C24.5183 96.7834 26.4715 102.455 29.409 107.768C34.0965 115.955 40.6277 122.19 49.0027 126.471C51.1902 127.533 53.4246 128.44 55.7058 129.19L58.659 130.033C66.6277 132.002 74.6746 132.221 82.7996 130.69C90.9558 129.158 98.784 126.299 106.284 122.112C113.815 117.924 120.612 112.846 126.675 106.877C132.737 100.94 137.659 94.5178 141.44 87.6116C144.003 82.9866 145.925 78.1272 147.206 73.0334C148.487 67.9709 148.846 63.0491 148.284 58.2678C147.69 53.5178 145.878 49.2991 142.846 45.6116C139.846 41.9553 135.331 39.2366 129.3 37.4553Z" fill="black"/>
</svg>
