<svg width="82" height="134" viewBox="0 0 82 134" fill="none" xmlns="http://www.w3.org/2000/svg">
<path id="ch" d="M41.7662 82.5958C41.2975 83.6271 40.7037 84.9708 39.985 86.6271C38.235 90.4708 36.235 95.1271 33.985 100.596C31.735 106.065 29.8443 111.424 28.3131 116.674C26.8131 121.924 26.2975 126.096 26.7662 129.19C28.6725 121.846 31.1568 114.69 34.2193 107.721C37.2818 100.783 40.7506 94.049 44.6256 87.5177C49.6256 79.2365 55.0475 71.2052 60.8912 63.424C61.2662 62.9552 61.7193 62.6896 62.2506 62.6271C62.8131 62.5333 63.3443 62.6583 63.8443 63.0021C64.3443 63.4083 64.61 63.924 64.6412 64.549C64.7037 65.1427 64.5006 65.6896 64.0318 66.1896C62.3443 67.8458 60.7193 69.5646 59.1568 71.3458C52.0631 79.4708 45.9537 88.2833 40.8287 97.7833C35.7037 107.315 31.7506 117.299 28.9693 127.737C28.5943 129.268 28.2662 130.799 27.985 132.33C27.9537 132.612 27.8287 132.83 27.61 132.987C27.4225 133.143 27.2037 133.205 26.9537 133.174C26.4225 132.987 25.985 132.627 25.6412 132.096C25.3287 131.596 25.0787 131.112 24.8912 130.643C24.3287 128.768 24.11 126.861 24.235 124.924C24.36 123.018 24.5943 121.127 24.9381 119.252C24.9381 119.19 24.9537 119.127 24.985 119.065C26.0162 113.908 27.3756 108.846 29.0631 103.877C30.7818 98.9396 32.61 94.0333 34.5475 89.1583C41.3912 72.4083 48.9225 55.9708 57.1412 39.8458C50.985 48.3458 44.7193 55.9708 38.3443 62.7208C32.0006 69.4708 26.0943 73.924 20.6256 76.0802C18.8443 76.7052 17.0475 76.8771 15.235 76.5958C13.4537 76.3146 11.7662 75.7052 10.1725 74.7677C7.17246 72.9552 4.96934 70.2521 3.56309 66.6583C2.18809 63.0333 1.35996 59.0021 1.07871 54.5646C0.828711 50.1271 0.891211 45.7833 1.26621 41.5333C1.64121 37.2833 2.07871 33.6271 2.57871 30.5646C3.10996 27.2208 3.79746 23.8927 4.64121 20.5802C4.92246 19.7364 5.40684 19.2521 6.09434 19.1271C6.81309 18.9708 7.45371 19.1271 8.01621 19.5958C8.57871 20.0333 8.79746 20.6896 8.67246 21.5646C8.01621 24.9083 7.32871 29.0177 6.60996 33.8927C5.92246 38.7364 5.50059 43.7833 5.34434 49.0333C5.21934 54.2521 5.65684 59.0646 6.65684 63.4708C7.68809 67.8458 9.59434 71.2365 12.3756 73.6427C15.3443 75.5177 18.8443 75.3771 22.8756 73.2208C26.9068 71.0646 31.2037 67.5802 35.7662 62.7677C40.36 57.924 44.9225 52.4239 49.4537 46.2677C53.985 40.0802 58.2193 33.9083 62.1568 27.7521C66.1256 21.5646 69.5162 16.0646 72.3287 11.2521C74.1725 7.93956 76.0475 4.62706 77.9537 1.31456C78.4537 0.533312 79.0631 0.173937 79.7818 0.236437C80.5318 0.267687 81.1256 0.580187 81.5631 1.17394C82.0006 1.76769 82.0162 2.48644 81.61 3.33019C80.61 5.26769 79.61 7.18956 78.61 9.09581C72.235 21.1896 65.9225 33.3614 59.6725 45.6114C53.4537 57.8302 47.485 70.1583 41.7662 82.5958Z" fill="black"/>
</svg>
