<svg width="103" height="137" viewBox="0 0 103 137" fill="none" xmlns="http://www.w3.org/2000/svg">
<path id="d" d="M90.0157 27.4554C96.0157 34.0179 99.8907 41.6273 101.641 50.2835C103.422 58.9085 103.375 67.5023 101.5 76.0648C99.4376 85.7836 95.6719 94.4711 90.2032 102.127C84.7344 109.784 78.0782 116.237 70.2344 121.487C62.3907 126.768 53.8438 130.69 44.5938 133.252C35.3751 135.815 25.9844 136.862 16.4219 136.393C9.51569 136.174 4.87507 134.612 2.50007 131.705C0.125067 128.799 -0.437433 125.237 0.812567 121.018C2.09382 116.799 4.75007 112.596 8.78132 108.409C10.5938 106.502 12.5157 104.737 14.5469 103.112C16.3594 93.3929 19.1094 83.0804 22.7969 72.1742C26.5157 61.2367 31.1407 50.7523 36.6719 40.721C42.2344 30.6898 48.6563 22.1273 55.9376 15.0335C55.5001 14.971 55.0469 14.9242 54.5782 14.8929C46.8594 14.2992 39.4376 15.5023 32.3126 18.5023C26.1563 21.1585 20.8282 25.096 16.3282 30.3148C11.8594 35.5335 9.10944 41.4867 8.07819 48.1742C7.64069 51.9554 8.23444 55.5492 9.85944 58.9554C10.2344 59.8929 10.1407 60.6429 9.57819 61.2054C9.04694 61.7679 8.39069 62.0023 7.60944 61.9086C6.82819 61.7836 6.29694 61.2211 6.01569 60.2211C4.98444 54.7836 5.23444 49.471 6.76569 44.2835C8.29694 39.096 10.7657 34.346 14.1719 30.0335C17.5782 25.721 21.5469 22.1117 26.0782 19.2054C30.7969 16.2679 35.8751 14.1898 41.3126 12.971C47.1876 11.6898 53.1407 11.4242 59.1719 12.1742C63.0469 8.86167 67.1563 6.20542 71.5001 4.20542C75.8751 2.17417 80.4532 0.939798 85.2344 0.502298C88.6719 0.283548 92.0782 0.517924 95.4532 1.20542C96.1094 1.36167 96.6094 1.70542 96.9532 2.23667C97.2969 2.73667 97.4063 3.3148 97.2813 3.97105C97.1251 4.6273 96.7813 5.1273 96.2501 5.47105C95.7188 5.8148 95.1094 5.92417 94.4219 5.79917C88.8282 4.64292 83.5001 4.7523 78.4376 6.1273C73.4063 7.47105 68.6876 9.78355 64.2813 13.0648C74.2813 15.3148 82.8594 20.1117 90.0157 27.4554ZM97.0938 75.1742C98.3751 68.7054 98.6094 62.1898 97.7969 55.6273C97.0157 49.0648 94.9844 42.8929 91.7032 37.1117C88.3282 31.4867 83.9219 26.8617 78.4844 23.2367C73.0782 19.6117 67.1876 17.1273 60.8126 15.7835C54.3438 21.471 48.5938 28.3304 43.5626 36.3617C38.5626 44.3929 34.3126 52.6117 30.8126 61.0179C27.3126 69.4242 24.6094 77.0023 22.7032 83.7523C21.2032 89.0648 19.9376 94.4554 18.9063 99.9242C25.7188 95.3929 33.1407 92.3148 41.1719 90.6898C47.1407 89.4711 53.1563 89.2523 59.2188 90.0336C61.2501 90.3148 63.2501 90.7054 65.2188 91.2054C65.7813 91.3617 66.1876 91.6742 66.4376 92.1429C66.7188 92.6117 66.7969 93.1273 66.6719 93.6898C66.5157 94.2523 66.1876 94.6586 65.6876 94.9086C65.2188 95.1898 64.7032 95.2523 64.1407 95.0961C62.3282 94.5648 60.5001 94.1429 58.6563 93.8304C51.5626 92.7367 44.5313 93.0648 37.5626 94.8148C30.6251 96.5648 24.2032 99.4711 18.2969 103.534C17.4844 108.627 17.0782 113.752 17.0782 118.909C17.0157 119.971 16.5938 120.674 15.8126 121.018C15.0626 121.362 14.3126 121.346 13.5626 120.971C12.8126 120.627 12.4219 119.909 12.3907 118.815C12.6719 115.159 13.1719 111.19 13.8907 106.909C12.7032 107.909 11.5626 108.955 10.4688 110.049C8.06257 112.33 6.01569 114.909 4.32819 117.784C2.10944 121.69 1.45319 125.174 2.35944 128.237C3.26569 131.33 6.06257 133.362 10.7501 134.33C15.5313 135.08 20.3438 135.268 25.1876 134.893C33.6876 134.33 41.9063 132.502 49.8438 129.409C61.8438 124.815 72.0782 117.799 80.5469 108.362C89.0157 98.9554 94.5313 87.8929 97.0938 75.1742Z" fill="black"/>
</svg>
