<svg width="138" height="106" viewBox="0 0 138 106" fill="none" xmlns="http://www.w3.org/2000/svg">
<path id="e" d="M137.526 90.5751C137.216 89.3577 136.599 88.6677 135.675 88.5051C134.762 88.3719 133.973 88.6258 133.309 89.2668C132.655 89.9371 132.556 90.8542 133.013 92.0182C133.499 93.1714 133.299 94.1753 132.413 95.03C131.567 95.9033 130.657 96.6004 129.683 97.1213C127.44 98.27 125.076 99.1305 122.591 99.7026C120.135 100.264 117.661 100.732 115.17 101.107C111.104 101.722 107.024 102.16 102.928 102.42C86.4394 103.533 70.4648 101.034 55.0044 94.9216C39.5547 88.839 26.2266 79.7229 15.0201 67.5731C13.5805 65.9022 12.3104 64.1031 11.2098 62.1758C10.1093 60.2485 9.29699 58.1996 8.77303 56.0291C7.97365 52.4624 8.24232 49.2719 9.57906 46.4574C10.9345 43.6029 13.3287 41.501 16.7617 40.1517C20.4244 38.885 24.2048 38.3072 28.1028 38.4181C32.0783 38.4676 36.0858 38.7881 40.1255 39.3796C40.7903 39.4701 41.3697 39.3258 41.8635 38.9465C42.3573 38.5672 42.6641 38.0398 42.7841 37.3643C42.856 36.7396 42.7023 36.1803 42.323 35.6865C41.9731 35.182 41.4804 34.8791 40.845 34.7778C40.8343 34.7485 40.8289 34.7338 40.8289 34.7338C40.8289 34.7338 40.8142 34.7391 40.7849 34.7498C40.606 34.7151 40.4324 34.6952 40.2642 34.6899C37.5836 34.2689 34.1779 33.3635 30.0472 31.9738C25.9458 30.5733 21.8096 28.8032 17.6386 26.6632C13.4863 24.4832 10.0054 22.0921 7.19593 19.4898C4.4051 16.8475 2.99057 14.1033 2.95232 11.2573C3.17059 9.11596 4.14858 7.463 5.88631 6.29841C7.6534 5.12312 9.52873 4.29088 11.5123 3.80169C16.5527 2.66544 21.6773 2.2634 26.8864 2.59553C32.0847 2.8983 37.2137 3.55883 42.2734 4.57717C45.3359 5.22501 48.5774 6.09038 51.9979 7.1733C55.4183 8.25621 58.6493 9.64088 61.6908 11.3273C64.7616 13.003 67.32 15.0981 69.3659 17.6125C70.0203 18.4052 70.7506 18.7214 71.5568 18.5609C72.3924 18.3898 73.013 17.9478 73.4186 17.2348C73.8242 16.5218 73.7479 15.7182 73.1896 14.824C71.0718 12.9343 68.7659 11.3959 66.2719 10.2086C63.7779 9.02123 61.2278 7.95407 58.6218 7.00706C58.4322 6.94305 58.2426 6.87903 58.053 6.81501C54.6966 5.54251 50.5459 4.32633 45.601 3.16646C40.6747 1.96653 35.5002 1.08975 30.0776 0.536081C24.6549 -0.0175858 19.5648 0.022684 14.8073 0.656904C10.0684 1.25107 6.22829 2.71534 3.28681 5.04971C1.47179 6.64151 0.439168 8.64689 0.188943 11.0659C0.043016 14.0455 1.11051 16.9326 3.39144 19.7273C5.70173 22.5112 8.70345 25.0934 12.3966 27.4738C16.0898 29.8542 19.9631 31.9528 24.0165 33.7698C21.2345 33.9842 18.5702 34.5217 16.0234 35.3822C13.4766 36.2426 11.1409 37.5916 9.01623 39.4292C6.75015 41.5177 5.2024 44.0265 4.37297 46.9556C3.57291 49.874 3.46034 52.8082 4.03527 55.7583C4.78402 59.6427 6.26956 63.1758 8.49186 66.3576C10.7249 69.5688 13.2661 72.4848 16.1157 75.1058C27.8798 85.9552 41.3264 93.9807 56.4554 99.1823C71.6139 104.373 87.1638 106.345 103.105 105.099C107.703 104.756 112.265 104.226 116.793 103.509C121.361 102.811 125.833 101.665 130.208 100.073C132.333 99.3325 134.16 98.1852 135.69 96.6309C137.259 95.0952 137.871 93.0766 137.526 90.5751Z" fill="black"/>
</svg>
