<svg width="128" height="113" viewBox="0 0 128 113" fill="none" xmlns="http://www.w3.org/2000/svg">
<path id="f" d="M52.3623 93.5646C51.3311 99.3146 50.4873 105.096 49.8311 110.908C49.6436 111.908 49.1592 112.533 48.378 112.783C47.5967 113.065 46.8623 112.986 46.1748 112.549C45.4873 112.111 45.1592 111.377 45.1905 110.346C45.1905 110.283 45.2061 110.221 45.2373 110.158L45.8467 107.111C46.628 103.205 47.4561 99.3146 48.3311 95.4396L49.0811 92.0177C51.3936 81.9552 54.003 71.9708 56.9092 62.0646C61.253 47.2208 66.4092 32.6583 72.378 18.377C72.7842 17.4083 73.2061 16.4395 73.6436 15.4708C74.0186 14.7833 74.5186 14.4552 75.1436 14.4864C75.7998 14.4864 76.3155 14.7364 76.6905 15.2364C77.0967 15.7052 77.1436 16.3145 76.8311 17.0645C71.8623 27.1583 67.6123 37.5333 64.0811 48.1895C59.3936 61.9395 55.6748 75.9708 52.9248 90.2833L52.3623 93.5646ZM113.815 55.8302C106.597 63.2364 98.3155 69.1427 88.9717 73.5489C79.628 77.9552 69.878 80.9396 59.7217 82.5021C53.753 83.4708 47.7217 83.8927 41.628 83.7677C35.5342 83.6739 29.5655 82.7052 23.7217 80.8614C19.0655 79.4552 14.8155 77.2208 10.9717 74.1583C7.12796 71.1271 4.33108 67.2989 2.58108 62.6739C0.674833 56.9552 0.409208 51.6583 1.78421 46.7833C3.12796 41.877 5.58108 37.4708 9.14358 33.5645C12.7373 29.6583 16.9092 26.2833 21.6592 23.4395C26.378 20.627 31.1905 18.4083 36.0967 16.7833C43.9717 13.8145 52.1123 12.0645 60.5186 11.5333H62.5342C68.503 7.65829 75.003 4.75204 82.0342 2.81454C89.0967 0.908292 96.1592 0.361417 103.222 1.17392C108.69 1.92392 113.55 4.08017 117.8 7.64267C120.612 10.2052 122.878 13.2052 124.597 16.6427C126.347 20.0802 127.284 23.7364 127.409 27.6114C127.378 33.0802 126.05 38.1895 123.425 42.9395C120.8 47.6895 117.597 51.9864 113.815 55.8302ZM91.8311 67.2208C96.7061 64.7833 101.597 61.5489 106.503 57.5177C111.378 53.4864 115.487 48.9552 118.831 43.9239C122.175 38.8927 123.972 33.627 124.222 28.127C124.44 22.627 122.347 17.1739 117.94 11.7677C114.847 8.26767 111.112 5.86142 106.737 4.54892C102.362 3.20517 97.7217 2.72079 92.8155 3.09579C87.878 3.47079 83.0498 4.42392 78.3311 5.95517C73.5811 7.51767 69.2998 9.39267 65.4873 11.5802C68.0811 11.7364 70.6592 12.127 73.2217 12.752C73.6592 12.877 74.003 13.1427 74.253 13.5489C74.4717 13.9239 74.5186 14.3302 74.3936 14.7677C74.2686 15.2052 74.0186 15.5489 73.6436 15.7989C73.2686 16.0177 72.8467 16.0645 72.378 15.9395C68.5342 15.0645 64.628 14.6739 60.6592 14.7677C57.9092 17.0177 55.503 19.7677 53.4405 23.0177C51.3467 26.2677 49.9405 29.5333 49.2217 32.8145C48.2842 36.8458 48.7842 40.6583 50.7217 44.252C52.8155 47.752 55.7217 50.3146 59.4405 51.9396C63.1905 53.5958 67.0342 53.9552 70.9717 53.0177C71.753 52.8614 72.3311 53.0489 72.7061 53.5802C73.0498 54.0802 73.128 54.6427 72.9405 55.2677C72.753 55.8614 72.253 56.2052 71.4405 56.2989C67.0655 56.3614 62.9248 55.4083 59.0186 53.4396C55.0811 51.5021 51.9405 48.6583 49.5967 44.9083C48.003 42.0645 47.3155 39.0177 47.5342 35.7677C47.753 32.5177 48.5498 29.4552 49.9248 26.5802C51.9873 22.1739 54.7373 18.2833 58.1748 14.9083C52.5186 15.3145 46.9561 16.377 41.4873 18.0958C35.9873 19.8145 30.7998 21.8927 25.9248 24.3302C22.1436 26.2052 18.5342 28.5489 15.0967 31.3614C11.6592 34.1427 8.83108 37.3614 6.61233 41.0177C4.39358 44.6739 3.22171 48.7521 3.09671 53.2521C3.12796 58.1271 4.23733 62.2677 6.42483 65.6739C8.64358 69.0802 11.6123 71.7989 15.3311 73.8302C19.0186 75.8614 23.128 77.2364 27.6592 77.9552C38.4405 79.6427 49.3936 79.5333 60.5186 77.6271C71.6748 75.6896 82.1123 72.2208 91.8311 67.2208Z" fill="black"/>
</svg>
