<svg width="107" height="124" viewBox="0 0 107 124" fill="none" xmlns="http://www.w3.org/2000/svg">
<path d="M25.2771 38.096C25.8396 28.3147 26.1364 20.6428 26.1677 15.0803L31.8864 13.8616C31.9489 13.8616 32.0114 13.846 32.0739 13.8147C31.9802 14.6585 31.8708 15.5022 31.7458 16.346C31.1208 20.6897 30.3708 25.0022 29.4958 29.2835C27.5271 38.7522 25.1989 48.1428 22.5114 57.4553C24.0427 50.1428 24.9646 43.6897 25.2771 38.096ZM28.0427 12.1272L28.0896 12.1741C27.0896 12.3616 26.1052 12.5647 25.1364 12.7835C24.6052 12.9085 24.1364 13.1585 23.7302 13.5335C23.4177 13.846 23.3239 14.2678 23.4489 14.7991C23.4177 14.9553 23.4021 15.1116 23.4021 15.2678C23.4958 21.7053 23.5427 27.1116 23.5427 31.4866C22.7302 45.5491 19.3864 63.6429 13.5114 85.7679C13.3239 86.3616 13.1521 86.9397 12.9958 87.5022C8.21456 101.69 4.13643 112.471 0.761432 119.846C0.480182 120.502 0.464557 121.143 0.714557 121.768C0.995807 122.393 1.48018 122.815 2.16768 123.033C2.79268 123.252 3.38643 123.221 3.94893 122.94C4.51143 122.658 4.90206 122.205 5.12081 121.58C6.05831 118.737 7.01143 115.908 7.98018 113.096C15.0114 91.6897 20.3239 75.1897 23.9177 63.596L24.4333 62.0022C28.3708 49.3147 31.7302 36.4866 34.5114 23.5178C35.2614 20.0803 35.8864 16.6272 36.3864 13.1585C47.3239 11.9397 58.3083 11.2366 69.3396 11.0491C80.9646 10.8928 92.4958 11.7053 103.933 13.4866C104.59 13.5803 105.168 13.4241 105.668 13.0178C106.168 12.6428 106.465 12.1272 106.558 11.471C106.621 10.8147 106.465 10.2366 106.09 9.73659C105.715 9.23659 105.199 8.93972 104.543 8.84597C98.6364 8.15847 92.7458 7.76784 86.8708 7.67409C81.0271 7.58034 75.1677 7.65847 69.2927 7.90847C59.8552 8.28347 48.9958 9.26784 36.7146 10.8616V10.721C37.0583 8.31472 37.3239 5.89284 37.5114 3.45534C37.4802 2.36159 37.0896 1.62722 36.3396 1.25222C35.6208 0.877218 34.8708 0.861593 34.0896 1.20534C33.3396 1.54909 32.9177 2.23659 32.8239 3.26784C32.7614 5.98659 32.6052 8.68972 32.3552 11.3772C31.5739 11.5022 30.8083 11.6428 30.0583 11.7991L28.0427 12.1272Z" fill="black"/>
</svg>
