<svg width="120" height="147" viewBox="0 0 120 147" fill="none" xmlns="http://www.w3.org/2000/svg">
<path id="i" d="M118.064 0.627337C118.721 0.971087 119.158 1.48671 119.377 2.17421C119.627 2.83046 119.611 3.50234 119.33 4.18984C119.33 4.25234 119.314 4.29921 119.283 4.33046C119.283 4.36171 119.267 4.39296 119.236 4.42421C119.236 4.45546 119.236 4.47109 119.236 4.47109C119.205 4.50234 119.189 4.51796 119.189 4.51796C118.502 6.17421 117.814 7.83046 117.127 9.48671C116.721 10.393 116.33 11.2992 115.955 12.2055C113.611 17.4867 111.142 22.7055 108.549 27.8617C108.049 28.8617 107.533 29.8773 107.002 30.9086C102.158 41.4711 97.6737 52.1742 93.5487 63.018C89.4237 73.8617 85.9862 84.8773 83.2362 96.0648C80.4862 107.284 78.7674 118.721 78.0799 130.377C77.8924 131.815 77.9081 133.58 78.1268 135.674C78.3768 137.799 78.9549 139.612 79.8612 141.112C80.7987 142.643 82.2362 143.252 84.1737 142.94C84.8924 142.846 85.4237 143.018 85.7674 143.455C86.1112 143.924 86.2206 144.44 86.0956 145.002C86.0018 145.565 85.6112 145.955 84.9237 146.174C82.3612 146.674 80.2987 146.205 78.7362 144.768C77.1737 143.362 76.0487 141.518 75.3612 139.237C74.6737 136.955 74.3612 134.768 74.4237 132.674C74.7987 120.112 76.3612 107.784 79.1112 95.6898C81.8612 83.5961 85.3924 71.6898 89.7049 59.9711C82.2049 71.1273 74.0487 81.7836 65.2362 91.9398C60.5174 97.3461 55.6424 102.627 50.6112 107.784C45.6112 112.971 40.3143 117.83 34.7206 122.362C32.3768 124.143 29.8456 125.659 27.1268 126.909C23.3456 128.721 19.5174 129.315 15.6424 128.69C11.7987 128.096 8.57994 126.065 5.98619 122.596C3.45494 118.846 1.82994 114.737 1.11119 110.268C0.392439 105.799 0.111189 101.33 0.267439 96.8617C0.517439 84.518 2.15806 72.3617 5.18931 60.393C8.25181 48.4242 12.5018 36.893 17.9393 25.7992C18.4706 24.9242 19.1424 24.5023 19.9549 24.5336C20.7674 24.5336 21.4237 24.8617 21.9237 25.518C22.4549 26.143 22.5174 26.9398 22.1112 27.9086C16.9549 38.0023 12.8143 48.5023 9.68931 59.4086C6.59556 70.3148 4.70494 81.4242 4.01744 92.7367C3.73619 96.8617 3.68931 101.018 3.87681 105.205C4.09556 109.424 5.01744 113.455 6.64244 117.299C8.48619 121.487 11.1268 124.159 14.5643 125.315C18.0331 126.471 21.8299 126.127 25.9549 124.284C28.5174 123.159 30.9237 121.768 33.1737 120.112C35.4237 118.455 37.5956 116.705 39.6893 114.862C61.8143 95.3617 80.1268 72.7523 94.6268 47.0336C100.127 33.5336 105.892 20.2055 111.924 7.04921C112.674 5.39296 113.408 3.73671 114.127 2.08046C114.502 1.29921 115.049 0.767962 115.767 0.486712C116.517 0.205462 117.283 0.252337 118.064 0.627337Z" fill="black"/>
</svg>
