<svg width="78" height="138" viewBox="0 0 78 138" fill="none" xmlns="http://www.w3.org/2000/svg">
<path id="k" d="M76.9882 18.2053C77.457 18.7053 77.6757 19.2835 77.6445 19.9397C77.6132 20.5647 77.3476 21.1116 76.8476 21.5803C67.3476 30.1428 58.2226 39.1585 49.4726 48.6272C40.7226 58.0647 32.8476 68.1585 25.8476 78.9085C36.8789 82.4397 45.707 88.5803 52.332 97.3303C58.957 106.08 62.8789 116.143 64.0976 127.518C64.3789 130.018 64.5351 132.549 64.5664 135.112C64.5039 136.143 64.1132 136.83 63.3945 137.174C62.6757 137.549 61.9257 137.58 61.1445 137.268C60.3945 136.955 59.9726 136.283 59.8789 135.252C60.1601 131.815 60.1757 128.393 59.9257 124.987C59.0507 114.705 55.5664 105.565 49.4726 97.5647C43.3789 89.596 35.3476 84.096 25.3789 81.0647C23.9101 88.0647 22.5351 95.0803 21.2539 102.112C21.1914 102.424 21.0195 102.674 20.7382 102.862C20.4882 103.049 20.207 103.112 19.8945 103.049C19.5507 102.987 19.2851 102.83 19.0976 102.58C18.9414 102.33 18.8789 102.033 18.9101 101.69C20.0351 94.596 21.2695 87.5022 22.6132 80.4085C16.1445 79.0647 9.78511 79.2522 3.53511 80.971C2.87886 81.1272 2.26948 81.0491 1.70698 80.7366C1.17573 80.4553 0.816355 79.9866 0.628855 79.3303C0.441355 78.5803 0.55073 77.9085 0.95698 77.3147C1.39448 76.721 2.00386 76.3928 2.78511 76.3303C9.66011 75.8616 16.4101 76.4553 23.0351 78.1116C25.5664 64.9866 28.6757 52.0022 32.3632 39.1585C36.0507 26.2835 40.957 13.8772 47.082 1.93972C47.6445 1.06472 48.332 0.658472 49.1445 0.720972C49.9882 0.783472 50.6445 1.14285 51.1132 1.7991C51.6132 2.4241 51.6601 3.22097 51.2539 4.18972C45.4414 14.846 40.6601 25.971 36.9101 37.5647C33.1601 49.1272 29.9414 60.8303 27.2539 72.6741C33.8476 62.6741 41.0664 53.1585 48.9101 44.1272C56.7851 35.096 65.0351 26.4397 73.6601 18.1585C74.1601 17.6897 74.7226 17.471 75.3476 17.5022C75.9726 17.5022 76.5195 17.7366 76.9882 18.2053Z" fill="black"/>
</svg>
