<svg width="66" height="118" viewBox="0 0 66 118" fill="none" xmlns="http://www.w3.org/2000/svg">
<path id="l" d="M60.6964 3.72096C60.1026 3.97096 59.5089 4.31471 58.9151 4.75221C56.1964 6.59596 53.5245 9.33034 50.8995 12.9553C48.3058 16.5491 45.8683 20.4397 43.587 24.6272C41.337 28.8147 39.3683 32.7366 37.6808 36.3928C36.0245 40.0178 34.7901 42.7991 33.9776 44.7366C29.8526 56.7991 26.2589 68.1897 23.1964 78.9084C21.8214 83.2522 20.3995 86.8459 18.9308 89.6897C17.8683 91.8772 16.5714 94.1272 15.0401 96.4397C13.5089 98.7834 11.962 100.158 10.3995 100.565C8.86825 100.596 7.44638 98.9241 6.13388 95.5491C4.85263 92.2053 3.69638 87.8928 2.66513 82.6116C2.47763 81.7366 2.30575 80.8459 2.1495 79.9397C1.61825 76.7522 1.16513 74.1272 0.790128 72.0647C0.602628 70.9709 0.587003 70.1272 0.743253 69.5334C0.930753 68.9397 1.13388 68.7209 1.35263 68.8772C1.63388 68.9709 1.85263 69.5334 2.00888 70.5647C2.22763 73.6897 2.61825 76.7834 3.18075 79.8459C4.0245 84.5022 5.11825 88.9397 6.462 93.1584C6.8995 94.4397 7.43075 95.6428 8.05575 96.7678C8.712 97.8928 9.50888 98.4241 10.4464 98.3616C11.1964 98.0803 11.8995 97.4866 12.5558 96.5803C13.9308 94.6428 15.1651 92.4397 16.2589 89.9709C19.3526 83.2522 21.8683 76.0959 23.8058 68.5022C25.7745 60.8772 28.6183 52.7053 32.337 43.9866C34.9933 37.8928 37.8526 31.8772 40.9151 25.9397C43.9776 19.971 47.4933 14.2835 51.462 8.87721C52.712 7.15846 54.1964 5.48659 55.9151 3.86159C56.1964 3.58034 56.4933 3.31471 56.8058 3.06471C59.2433 1.03346 60.8214 0.0959647 61.5401 0.252215L62.2901 0.627215C62.5089 0.783465 62.7589 1.03346 63.0401 1.37721C63.3839 1.78346 63.7276 2.39284 64.0714 3.20534C64.4151 4.01784 64.7432 5.08034 65.0557 6.39284C65.462 8.95534 65.462 11.5178 65.0557 14.0803C64.9932 14.5178 64.9464 14.9553 64.9151 15.3928C63.9151 23.8616 62.6183 32.2522 61.0245 40.5647C60.8683 41.4085 60.712 42.2366 60.5558 43.0491C60.1183 45.4241 59.6651 47.8928 59.1964 50.4553C58.4776 54.0803 57.8214 57.6741 57.2276 61.2366C55.1964 78.5803 53.8214 89.8772 53.1026 95.1272C53.0401 95.5959 52.9776 96.0491 52.9151 96.4866V96.5334C52.7901 97.7522 52.6651 99.1116 52.5401 100.612C52.1651 104.674 51.6651 109.799 51.0401 115.987C50.9776 116.799 50.6495 117.33 50.0558 117.58C49.5245 117.83 48.962 117.815 48.3683 117.533C47.8058 117.252 47.5089 116.721 47.4776 115.94L47.712 112.752C48.087 108.346 48.5401 103.955 49.0714 99.5803C49.3526 97.1741 49.6651 94.7834 50.0089 92.4084C51.6026 75.8459 52.7433 65.2835 53.4308 60.721C53.6808 59.1585 53.9308 57.6116 54.1808 56.0803C54.837 51.7053 55.5401 47.3147 56.2901 42.9085C57.2901 37.1585 58.1964 31.4085 59.0089 25.6585C59.8526 19.8772 60.4308 14.0647 60.7433 8.22096C60.7745 7.84596 60.8058 7.43971 60.837 7.00221C60.8995 6.28346 60.9308 5.59596 60.9308 4.93971C60.9308 4.40846 60.8526 4.00221 60.6964 3.72096Z" fill="black"/>
</svg>
