<svg width="118" height="163" viewBox="0 0 118 163" fill="none" xmlns="http://www.w3.org/2000/svg">
<path id="m" d="M116.841 2.40845C112.779 10.5022 108.763 18.7522 104.794 27.1584C102.326 32.3147 99.8569 37.4553 97.3882 42.5803C93.3882 56.4241 90.5132 70.4397 88.7632 84.6272C87.0132 98.8147 86.4038 111.049 86.935 121.33C87.1538 125.705 87.5757 130.19 88.2007 134.783C88.8569 139.377 89.9507 143.815 91.4819 148.096C93.0444 152.377 95.2944 156.221 98.2319 159.627C98.6694 160.158 98.7788 160.69 98.56 161.221C98.3725 161.783 98.0132 162.158 97.4819 162.346C96.9507 162.565 96.4038 162.424 95.8413 161.924C94.56 160.549 93.4194 159.08 92.4194 157.518C88.1694 150.205 85.4507 140.987 84.2632 129.862C83.0757 118.768 83.0757 106.83 84.2632 94.0491C85.4819 81.2991 87.5288 68.7834 90.4038 56.5022C87.0913 63.0959 83.685 69.6428 80.185 76.1428C76.685 82.6428 72.9663 89.0022 69.0288 95.2209C68.7475 95.6272 68.4507 96.0491 68.1382 96.4866C66.7319 98.6741 64.9663 101.158 62.8413 103.94C60.7163 106.721 58.4194 109.033 55.9507 110.877C53.4819 112.721 51.0132 113.362 48.5444 112.799C47.3569 112.33 46.5757 111.252 46.2007 109.565C45.8257 107.908 45.6538 106.049 45.685 103.987C45.7475 101.955 45.8725 100.127 46.06 98.5022C46.1225 97.7209 46.1694 97.0647 46.2007 96.5334C46.9507 89.5647 47.8882 82.6428 49.0132 75.7678C49.6694 71.3928 50.3725 67.0022 51.1225 62.5959C52.1225 56.8459 53.0288 51.0959 53.8413 45.3459C54.685 39.5647 55.2632 33.7522 55.5757 27.9084C55.6069 27.5334 55.6382 27.1272 55.6694 26.6897C55.7319 25.9709 55.7632 25.2834 55.7632 24.6272C55.7632 23.9709 55.6538 23.5022 55.435 23.2209C52.935 22.1897 50.3257 22.5959 47.6069 24.4397C44.9194 26.2834 42.2631 29.0178 39.6381 32.6428C37.0444 36.2366 34.6069 40.1272 32.3256 44.3147C30.0756 48.5022 28.1069 52.4241 26.4194 56.0803C24.7631 59.7053 23.5288 62.4866 22.7163 64.4241C15.2475 82.2053 8.77876 100.362 3.31001 118.893C3.09126 119.487 2.70064 119.83 2.13814 119.924C1.60689 120.049 1.18501 119.94 0.872514 119.596C0.591264 119.283 0.481889 118.799 0.544389 118.143C0.544389 118.143 0.716264 117.502 1.06001 116.221C1.40376 114.94 1.88814 113.487 2.51314 111.862C3.16939 110.237 4.26314 107.033 5.79439 102.252C10.4819 89.2209 15.5756 76.3616 21.0756 63.6741C23.7319 57.5803 26.5913 51.5647 29.6538 45.6272C32.7163 39.6584 36.2319 33.9709 40.2006 28.5647C41.4506 26.8459 42.9194 25.1741 44.6069 23.5491C46.3257 21.9241 48.2007 20.7209 50.2319 19.9397C52.2632 19.1584 54.4194 19.1897 56.7007 20.0334C56.7007 20.0334 56.81 20.1116 57.0288 20.2678C57.2475 20.3928 57.5288 20.6584 57.8725 21.0647C58.2163 21.4709 58.56 22.0803 58.9038 22.8928C59.2475 23.7053 59.5757 24.7678 59.8882 26.0803C60.2944 28.6428 60.2944 31.2053 59.8882 33.7678C59.8257 34.2053 59.7788 34.6428 59.7475 35.0803C58.7475 43.5491 57.4507 51.9397 55.8569 60.2522C55.7007 61.0959 55.5444 61.9241 55.3882 62.7366C54.9507 65.1116 54.4975 67.5803 54.0288 70.1428C52.2475 79.3303 50.7632 88.2522 49.5757 96.9084C49.0757 100.283 48.8569 103.658 48.9194 107.033C48.9507 107.565 49.0132 108.096 49.1069 108.627C49.2007 109.158 49.3569 109.612 49.5757 109.987C52.2319 110.112 55.2944 108.315 58.7632 104.596C62.2632 100.908 65.9663 95.9084 69.8725 89.5959C73.81 83.2834 77.7632 76.2834 81.7319 68.5959C85.7319 60.8772 89.5913 53.0959 93.31 45.2522C97.5288 30.3459 102.326 18.3303 107.701 9.20532C109.482 6.11157 111.638 3.22095 114.169 0.533447C114.513 0.189697 114.904 0.0178223 115.341 0.0178223C115.779 0.0178223 116.169 0.174072 116.513 0.486572C117.044 1.08032 117.154 1.72095 116.841 2.40845Z" fill="black"/>
</svg>
