<svg width="149" height="140" viewBox="0 0 149 140" fill="none" xmlns="http://www.w3.org/2000/svg">
<path id="mz" d="M77.2146 43.4084C68.8396 46.2834 60.7458 49.8616 52.9333 54.1428C46.1833 57.9553 39.3865 62.4866 32.5427 67.7366C25.699 73.0178 19.574 78.9084 14.1677 85.4084C8.76149 91.9397 4.82399 98.9709 2.35524 106.502C0.605239 112.158 0.448989 117.658 1.88649 123.002C3.29274 128.377 6.05836 132.658 10.1834 135.846C14.3396 139.065 19.6052 140.283 25.9802 139.502C26.9802 139.252 27.5896 138.737 27.8083 137.955C28.0271 137.174 27.9021 136.44 27.4333 135.752C26.9958 135.065 26.2615 134.768 25.2302 134.862C22.0427 135.393 18.9959 135.033 16.0896 133.783C13.1834 132.565 10.8396 130.596 9.05836 127.877C6.65211 124.002 5.48024 119.987 5.54274 115.83C5.60524 111.674 6.49586 107.565 8.21461 103.502C9.93336 99.4397 12.1052 95.5803 14.7302 91.9241C17.3552 88.2678 20.0583 85.0022 22.8396 82.1272C30.1208 74.6584 38.1208 68.0334 46.8396 62.2522C55.5583 56.4709 64.6833 51.4709 74.2146 47.2522C74.8708 46.9709 75.5427 46.6897 76.2302 46.4084C75.0427 50.0647 73.9021 53.7366 72.8083 57.4241C70.3083 65.9553 68.0896 74.5647 66.1521 83.2522L65.1208 87.9397C63.8708 93.9084 62.7615 99.8928 61.7927 105.893C60.699 112.643 60.5896 118.471 61.4646 123.377C62.3708 128.283 64.6208 131.096 68.2146 131.815C71.8083 132.565 76.8083 132.19 83.2146 130.69C91.3708 129.158 99.199 126.299 106.699 122.112C114.23 117.924 121.027 112.846 127.09 106.877C133.152 100.94 138.074 94.5178 141.855 87.6116C144.418 82.9866 146.34 78.1272 147.621 73.0334C148.902 67.9709 149.261 63.0491 148.699 58.2678C148.105 53.5178 146.293 49.2991 143.261 45.6116C140.261 41.9553 135.746 39.2366 129.715 37.4553C122.34 35.6428 114.902 35.2209 107.402 36.1897C99.9021 37.1584 92.5583 38.7209 85.3708 40.8772C84.6833 41.0647 84.0115 41.2522 83.3552 41.4397C86.6365 32.2522 90.2615 23.1741 94.2302 14.2053L95.2615 11.8616C96.2927 9.54907 97.3396 7.26782 98.4021 5.01782C98.8396 3.79907 98.7458 2.8147 98.1208 2.0647C97.4646 1.3147 96.6365 0.939697 95.6365 0.939697C94.6365 0.970947 93.8396 1.53345 93.2458 2.6272C91.6833 6.03345 90.1677 9.47095 88.699 12.9397L87.7615 15.2366C83.8865 24.5178 80.3708 33.9084 77.2146 43.4084ZM82.4646 44.0178C87.5583 42.2366 92.7771 40.8303 98.1208 39.7991C104.746 38.4866 111.183 38.0334 117.433 38.4397C123.683 38.8459 129.121 40.3303 133.746 42.8928C138.371 45.4553 141.558 49.2991 143.308 54.4241C145.09 59.5491 144.824 66.1584 142.511 74.2522C140.105 82.0959 136.152 89.5959 130.652 96.7522C125.152 103.908 118.652 110.174 111.152 115.549C103.621 120.924 95.6208 124.862 87.1521 127.362C78.9646 129.768 73.1052 130.455 69.574 129.424C66.0427 128.393 64.324 123.924 64.4177 116.018C64.8552 112.112 65.9333 105.94 67.6521 97.5022L69.1521 90.5178C72.6833 74.7053 77.1208 59.2053 82.4646 44.0178Z" fill="black"/>
</svg>
