<svg width="122" height="151" viewBox="0 0 122 151" fill="none" xmlns="http://www.w3.org/2000/svg">
<path id="n" d="M114.689 1.03345C116.471 0.127197 117.986 0.127197 119.236 1.03345C120.486 1.90845 121.158 3.11157 121.252 4.64282C121.346 6.14282 120.58 7.40845 118.955 8.4397C117.361 9.8147 115.908 11.3772 114.596 13.1272C114.314 13.4709 114.018 13.8147 113.705 14.1584C107.861 21.7522 102.502 29.7053 97.6269 38.0178C92.5644 46.5178 87.9238 55.2522 83.705 64.2209C87.7988 62.1584 91.83 60.0022 95.7988 57.7522C96.7363 57.3147 97.5332 57.3303 98.1894 57.7991C98.8769 58.2678 99.2519 58.9084 99.3144 59.7209C99.4082 60.5334 99.0332 61.2366 98.1894 61.8303C92.6582 63.9866 87.1738 66.2366 81.7363 68.5803C75.83 81.6116 71.3925 95.1116 68.4238 109.08C67.205 115.362 66.58 121.705 66.5488 128.112C66.5175 134.518 67.455 140.783 69.3613 146.908C69.5488 147.533 69.5019 148.127 69.2207 148.69C68.9394 149.252 68.4863 149.643 67.8613 149.862C67.2363 150.08 66.6425 150.049 66.08 149.768C65.5175 149.487 65.1269 149.033 64.9082 148.408C63.7207 141.627 63.2832 134.877 63.5957 128.158C64.1582 118.252 65.58 108.518 67.8613 98.9553C70.1425 89.3928 73.0644 80.0022 76.6269 70.7834C64.3769 76.2209 52.2207 81.8459 40.1582 87.6584C33.8457 90.6272 27.5488 93.5959 21.2676 96.5647C20.2363 102.315 19.3926 108.096 18.7363 113.908C18.5488 114.908 18.0645 115.533 17.2832 115.783C16.502 116.065 15.7676 115.987 15.0801 115.549C14.3926 115.112 14.0645 114.377 14.0957 113.346C14.0957 113.283 14.1113 113.221 14.1426 113.158L14.752 110.112C15.5332 106.205 16.3613 102.315 17.2363 98.4397C12.4551 100.721 7.7832 102.987 3.2207 105.237C2.56445 105.487 2.01758 105.424 1.58008 105.049C1.11133 104.705 0.876953 104.237 0.876953 103.643C0.876953 103.08 1.20508 102.612 1.86133 102.237C7.20508 99.8928 12.5801 97.4866 17.9863 95.0178C20.2988 84.9553 22.9082 74.9709 25.8145 65.0647C30.1582 50.2209 35.3145 35.6584 41.2832 21.3772C41.6895 20.4084 42.1113 19.4397 42.5488 18.4709C42.9238 17.7834 43.4238 17.4553 44.0488 17.4866C44.7051 17.4866 45.2207 17.7366 45.5957 18.2366C46.002 18.7053 46.0488 19.3147 45.7363 20.0647C40.7676 30.1584 36.5176 40.5334 32.9863 51.1897C28.2988 64.9397 24.5801 78.9709 21.8301 93.2834C29.0488 90.0022 36.1895 86.7209 43.252 83.4397C47.752 81.3147 52.2519 79.2053 56.7519 77.1116C63.9082 73.8303 71.0175 70.4709 78.08 67.0334C82.455 56.1897 87.3144 45.5959 92.6582 35.2522C92.8144 34.9709 92.955 34.6897 93.08 34.4084C95.9238 29.0334 98.8769 23.7209 101.939 18.4709C105.002 13.2209 108.393 8.1897 112.111 3.3772C112.83 2.47095 113.689 1.6897 114.689 1.03345Z" fill="black"/>
</svg>
