<svg width="84" height="127" viewBox="0 0 84 127" fill="none" xmlns="http://www.w3.org/2000/svg">
<path id="o" d="M82.3809 33.0491C83.8809 43.2678 83.5527 53.4397 81.3965 63.5647C79.2402 73.6584 75.7246 83.2209 70.8496 92.2522C67.9746 97.5959 64.6465 102.658 60.8652 107.44C57.084 112.221 52.709 116.377 47.7402 119.908C43.7715 122.752 39.4121 124.783 34.6621 126.002C29.9121 127.221 25.1621 127.127 20.4121 125.721C14.7246 123.752 10.3496 120.752 7.28711 116.721C4.22461 112.69 2.20898 108.065 1.24023 102.846C0.302734 97.6272 0.146484 92.2678 0.771484 86.7678C1.39648 81.2991 2.53711 76.1272 4.19336 71.2522C6.63086 63.1897 10.1777 55.6585 14.834 48.6585C15.2402 48.096 15.6465 47.5491 16.0527 47.0178C16.584 39.9241 18.209 33.0022 20.9277 26.2522C23.6777 19.471 27.5215 13.5178 32.459 8.39284C36.3652 4.48659 41.0215 1.92409 46.4277 0.705339C50.1777 0.0178385 53.9434 0.0334635 57.7246 0.752214C61.5059 1.43971 64.9746 2.90846 68.1309 5.15846C72.4746 8.50221 75.7402 12.6585 77.9277 17.6272C80.1152 22.596 81.5996 27.7366 82.3809 33.0491ZM78.1152 57.4709C79.1152 52.0959 79.4902 46.2522 79.2402 39.9397C79.0215 33.596 77.9121 27.5647 75.9121 21.846C73.9434 16.1272 70.834 11.5178 66.584 8.01784C62.3652 4.48659 56.7715 2.84596 49.8027 3.09596C45.1465 3.43971 40.959 4.95534 37.2402 7.64284C33.5527 10.2991 30.3652 13.7053 27.6777 17.8616C24.9902 21.9866 22.8184 26.4085 21.1621 31.1272C19.5371 35.8147 18.4434 40.346 17.8809 44.721C19.5684 42.7522 21.4434 40.9397 23.5059 39.2835C23.8809 39.0022 24.2871 38.8928 24.7246 38.9553C25.1621 38.9866 25.5215 39.1897 25.8027 39.5647C26.084 39.9397 26.1934 40.346 26.1309 40.7835C26.0996 41.221 25.8965 41.5803 25.5215 41.8616C22.4902 44.3928 19.8184 47.2678 17.5059 50.4866C17.6309 54.0491 18.3496 57.6428 19.6621 61.2678C21.0059 64.8616 22.7559 67.9397 24.9121 70.5022C27.5684 73.6897 30.9121 75.6116 34.9434 76.2678C38.9746 76.7053 42.7715 75.9397 46.334 73.9709C49.9277 72.0022 52.5371 69.1584 54.1621 65.4397C54.5371 64.7209 55.0371 64.3772 55.6621 64.4084C56.2871 64.4397 56.7715 64.7209 57.1152 65.2522C57.4902 65.7522 57.4746 66.3459 57.0684 67.0334C54.4746 70.5647 51.209 73.2991 47.2715 75.2366C43.334 77.1741 39.1777 77.9397 34.8027 77.5334C31.5527 77.0959 28.6934 75.8147 26.2246 73.6897C23.7871 71.5334 21.834 69.0334 20.3652 66.1897C18.1152 61.8772 16.6934 57.3303 16.0996 52.5491C13.0059 57.2991 10.4746 62.3772 8.50586 67.7834C6.56836 73.1897 5.08398 78.5647 4.05273 83.9084C3.27148 88.0647 2.94336 92.3459 3.06836 96.7522C3.22461 101.19 4.08398 105.393 5.64648 109.362C7.20898 113.362 9.74023 116.768 13.2402 119.58C17.1465 122.518 21.1152 124.143 25.1465 124.455C29.209 124.768 33.1621 124.065 37.0059 122.346C40.8809 120.627 44.4746 118.19 47.7871 115.033C55.6621 107.471 62.209 98.6741 67.4277 88.6428C72.6465 78.6116 76.209 68.2209 78.1152 57.4709Z" fill="black"/>
</svg>
