<svg width="108" height="151" viewBox="0 0 108 151" fill="none" xmlns="http://www.w3.org/2000/svg">
<path id="p" d="M96.0723 6.28345C96.7911 5.3147 97.5255 4.34595 98.2755 3.3772C98.9942 2.47095 99.8536 1.6897 100.854 1.03345C102.635 0.127197 104.15 0.127197 105.4 1.03345C106.65 1.90845 107.322 3.11157 107.416 4.64282C107.51 6.14282 106.744 7.40845 105.119 8.4397C103.525 9.8147 102.072 11.3772 100.76 13.1272C100.479 13.4709 100.182 13.8147 99.8692 14.1584C94.0255 21.7522 88.6661 29.7053 83.7911 38.0178C78.7286 46.5178 74.088 55.2522 69.8692 64.2209L67.9005 68.5803C61.9942 81.6116 57.5567 95.1116 54.588 109.08C53.3692 115.362 52.7442 121.705 52.713 128.112C52.6817 134.518 53.6192 140.783 55.5255 146.908C55.713 147.533 55.6661 148.127 55.3848 148.69C55.1036 149.252 54.6505 149.643 54.0255 149.862C53.4005 150.08 52.8067 150.049 52.2442 149.768C51.6817 149.487 51.2911 149.033 51.0723 148.408C49.8848 141.627 49.4473 134.877 49.7598 128.158C50.3223 118.252 51.7442 108.518 54.0255 98.9553C56.3067 89.3928 59.2286 80.0022 62.7911 70.7834L64.2442 67.0334C68.6192 56.1897 73.4786 45.5959 78.8223 35.2522C78.9786 34.9709 79.1192 34.6897 79.2442 34.4084C82.088 29.0334 85.0411 23.7209 88.1036 18.4709C89.5723 15.9709 91.1036 13.5178 92.6973 11.1116C89.6348 11.2991 86.5723 11.5334 83.5098 11.8147L79.3848 12.1897C69.4786 13.2209 59.5723 14.4709 49.6661 15.9397C44.5098 16.6272 39.3692 17.3147 34.2442 18.0022L31.8536 18.3303C32.1661 18.7991 32.1817 19.3772 31.9005 20.0647C26.9317 30.1584 22.6817 40.5334 19.1505 51.1897C14.463 64.9397 10.7442 78.9709 7.99423 93.2834L7.43173 96.5647C6.40048 102.315 5.55673 108.096 4.90048 113.908C4.71298 114.908 4.2286 115.533 3.44735 115.783C2.6661 116.065 1.93173 115.987 1.24423 115.549C0.556726 115.112 0.228601 114.377 0.259851 113.346C0.259851 113.283 0.275476 113.221 0.306726 113.158L0.916101 110.112C1.69735 106.205 2.52548 102.315 3.40048 98.4397L4.15048 95.0178C6.46298 84.9553 9.07235 74.9709 11.9786 65.0647C16.3224 50.2209 21.4786 35.6584 27.4474 21.3772C27.8224 20.5022 28.1974 19.6272 28.5724 18.7522C25.4786 19.2209 22.4474 19.6897 19.4786 20.1584C18.9474 20.1897 18.5567 19.9553 18.3067 19.4553C18.088 18.9553 18.0567 18.4397 18.213 17.9084C18.3692 17.3772 18.713 17.0334 19.2442 16.8772C23.588 16.4709 27.9473 16.0022 32.3223 15.4709L35.463 15.0959C41.338 14.4084 47.1505 13.7053 52.9005 12.9866C56.588 12.4866 60.2598 12.0022 63.9161 11.5334C69.7286 10.8147 75.5411 10.0178 81.3536 9.14282L85.9942 8.34595C89.3692 7.78345 92.7286 7.09595 96.0723 6.28345Z" fill="black"/>
</svg>
