<svg width="149" height="140" viewBox="0 0 149 140" fill="none" xmlns="http://www.w3.org/2000/svg">
<path id="r" d="M129.748 2.54911C135.78 4.33036 140.295 7.06474 143.295 10.7522C146.326 14.4085 148.123 18.6272 148.686 23.4085C149.28 28.1585 148.936 33.0804 147.655 38.1741C146.373 43.2366 144.451 48.0804 141.889 52.7054C138.108 59.6116 133.186 66.0491 127.123 72.0178C121.061 77.9553 114.264 83.0178 106.733 87.2053C99.2327 91.3928 91.4046 94.2522 83.2484 95.7835C75.1234 97.3147 67.0765 97.096 59.1077 95.1272C55.514 106.721 51.764 118.268 47.8578 129.768C46.889 132.58 45.9359 135.408 44.9984 138.252C44.7797 138.877 44.389 139.33 43.8265 139.612C43.264 139.893 42.6703 139.924 42.0453 139.705C41.3578 139.487 40.8734 139.065 40.5922 138.44C40.3422 137.815 40.3578 137.174 40.639 136.518C44.7953 127.455 48.4359 118.205 51.5609 108.768C53.1547 103.955 54.6859 99.1272 56.1547 94.2835C53.8734 93.5335 51.639 92.6272 49.4515 91.5647C41.0765 87.2835 34.5453 81.0491 29.8578 72.8616C26.9203 67.5491 24.9672 61.8772 23.9984 55.846C23.8734 54.8147 24.139 54.0647 24.7953 53.596C25.4515 53.096 26.1703 52.9397 26.9515 53.1272C27.764 53.3147 28.3109 53.9085 28.5922 54.9085C28.4359 59.1897 28.9828 63.4085 30.2328 67.5647C31.4828 71.5022 33.3578 75.1272 35.8578 78.4397C38.4515 81.8772 41.5297 84.7835 45.0922 87.1585C48.6859 89.5647 52.5297 91.4085 56.6234 92.6897C59.7797 82.1585 62.4671 71.5335 64.6859 60.8147C65.5609 56.5335 66.3109 52.221 66.9359 47.8772C67.5609 43.5335 67.9202 39.1741 68.014 34.7991C68.1077 33.7679 68.5296 33.0804 69.2796 32.7366C70.0609 32.3929 70.8109 32.4085 71.5296 32.7835C72.2796 33.1585 72.6702 33.8929 72.7015 34.9866C72.139 41.7366 71.139 48.4241 69.7015 55.0491C66.9202 68.0179 63.5609 80.846 59.6234 93.5335C60.3734 93.721 61.139 93.8928 61.9202 94.0491C70.2952 95.4866 78.7171 94.9553 87.1859 92.4553C95.6546 89.9553 103.639 86.0178 111.139 80.6428C118.67 75.2678 125.186 69.0022 130.686 61.846C136.186 54.6897 140.139 47.1897 142.545 39.346C144.858 31.2522 145.123 24.6429 143.342 19.5179C141.592 14.3929 138.405 10.5491 133.78 7.98661C129.155 5.42411 123.717 3.93974 117.467 3.53349C111.217 3.12724 104.78 3.58036 98.1546 4.89286C89.9046 6.48661 81.9359 8.97099 74.2484 12.346C64.7171 16.5647 55.5922 21.5647 46.8734 27.346C38.1547 33.1272 30.1547 39.7522 22.8734 47.221C20.0922 50.096 17.389 53.3616 14.764 57.0179C12.139 60.6741 9.96716 64.5335 8.24841 68.596C6.52966 72.6585 5.63904 76.7678 5.57654 80.9241C5.51404 85.0803 6.68591 89.096 9.09216 92.971C10.8734 95.6897 13.2172 97.6585 16.1234 98.8772C19.0297 100.127 22.0765 100.487 25.264 99.9553C26.2953 99.8616 27.0297 100.158 27.4672 100.846C27.9359 101.533 28.0609 102.268 27.8422 103.049C27.6234 103.83 27.014 104.346 26.014 104.596C19.639 105.377 14.3734 104.158 10.2172 100.94C6.09216 97.7522 3.31091 93.471 1.87341 88.096C0.467164 82.7522 0.639039 77.2522 2.38904 71.596C4.85779 64.0647 8.79529 57.0491 14.2015 50.5491C19.6078 44.0179 25.7328 38.1272 32.5765 32.8772C39.4203 27.596 46.2172 23.0491 52.9672 19.2366C63.2797 13.5804 74.0921 9.15849 85.4046 5.97099C92.5921 3.81474 99.9359 2.25224 107.436 1.28349C114.936 0.314738 122.373 0.736613 129.748 2.54911Z" fill="black"/>
</svg>
