<svg width="96" height="129" viewBox="0 0 96 129" fill="none" xmlns="http://www.w3.org/2000/svg">
<path id="s" d="M90.8937 81.4553C91.1125 80.174 91.675 79.424 92.5812 79.2053C93.5187 78.9865 94.3468 79.1896 95.0656 79.8146C95.7843 80.4709 95.925 81.4084 95.4875 82.6271C92.1437 88.2209 87.6593 93.8146 82.0343 99.4084C76.4406 105.002 70.175 110.096 63.2375 114.69C56.3312 119.283 49.2375 122.862 41.9562 125.424C34.675 128.018 27.675 129.08 20.9562 128.612C17.7062 128.33 14.5656 127.58 11.5343 126.362C7.75309 124.83 5.06559 122.393 3.47184 119.049C1.87809 115.705 1.00309 112.112 0.84684 108.268C0.47184 101.455 1.14371 94.7521 2.86246 88.1584C4.58121 81.5959 6.98746 75.3146 10.0812 69.3146C16.2062 57.4396 23.4875 46.299 31.925 35.8928C40.3937 25.4865 50.0656 16.3615 60.9406 8.51777C64.0656 6.33027 67.4718 4.37714 71.1593 2.65839C74.8781 0.939644 78.6906 0.330269 82.5968 0.830269C84.0656 1.11152 85.3937 1.73652 86.5812 2.70527C87.8 3.64277 88.6906 4.81464 89.2531 6.22089C89.8156 7.97089 90.0031 9.75214 89.8156 11.5646C89.6593 13.3771 89.3468 15.1428 88.8781 16.8615C85.4093 30.049 79.2687 41.9084 70.4562 52.4396C70.0187 52.9396 69.4875 53.2209 68.8625 53.2834C68.2375 53.3146 67.6593 53.1271 67.1281 52.7209C66.5968 52.2521 66.3156 51.6896 66.2843 51.0334C66.2531 50.3771 66.4875 49.7834 66.9875 49.2521C71.9875 44.0959 76.2062 38.299 79.6437 31.8615C83.1125 25.424 85.4875 18.6428 86.7687 11.5178C86.925 10.0803 86.7843 8.67402 86.3468 7.29902C85.3781 5.39277 83.9875 4.26777 82.175 3.92402C80.3937 3.58027 78.5031 3.70527 76.5031 4.29902C74.5031 4.86152 72.7218 5.56464 71.1593 6.40839C65.0343 9.84589 59.1125 14.2209 53.3937 19.5334C47.675 24.8459 42.3156 30.5646 37.3156 36.6896C32.3156 42.7834 27.8312 48.7209 23.8625 54.5021C20.0187 60.2209 16.4875 66.2209 13.2687 72.5021C10.05 78.7834 7.62809 85.2834 6.00309 92.0021C4.40934 98.7521 4.09684 105.643 5.06559 112.674C5.40934 114.643 6.04996 116.487 6.98746 118.205C7.95621 119.955 9.29996 121.362 11.0187 122.424C12.8312 123.362 14.7062 124.08 16.6437 124.58C22.3312 125.893 28.0812 125.924 33.8937 124.674C39.7375 123.424 45.3781 121.424 50.8156 118.674C56.2843 115.924 61.3156 112.924 65.9093 109.674C68.6281 107.705 71.8468 105.143 75.5656 101.987C79.3156 98.8303 82.675 95.4396 85.6437 91.8146C88.6437 88.1896 90.3937 84.7365 90.8937 81.4553Z" fill="black"/>
</svg>
