<svg width="207" height="189" viewBox="0 0 207 189" fill="none" xmlns="http://www.w3.org/2000/svg">
<path id="sch" d="M175.494 139.893C179.775 129.987 183.51 119.877 186.697 109.565C180.885 111.783 175.275 114.424 169.869 117.486C164.432 120.518 159.4 124.112 154.775 128.268C151.65 131.33 148.744 134.596 146.057 138.065C142.963 142.065 140.26 146.33 137.947 150.862C135.603 155.362 133.853 160.065 132.697 164.971C132.103 167.783 131.775 170.69 131.713 173.69C131.65 176.658 132.307 179.44 133.682 182.033C135.838 185.127 138.494 186.565 141.65 186.346C144.807 186.127 147.682 184.83 150.275 182.455C152.307 180.612 154.135 178.549 155.76 176.268C157.353 173.987 158.853 171.674 160.26 169.33L160.682 168.674C166.275 159.393 171.213 149.799 175.494 139.893ZM158.76 80.5959C161.228 71.8146 163.603 63.9396 165.885 56.9709C158.385 68.1271 150.228 78.7834 141.416 88.9396C136.697 94.3459 131.822 99.6271 126.791 104.783C121.791 109.971 116.494 114.83 110.9 119.361C108.557 121.143 106.025 122.658 103.307 123.908C99.5253 125.721 95.6971 126.315 91.8221 125.69C87.9784 125.096 84.7596 123.065 82.1659 119.596C79.6346 115.846 78.0096 111.736 77.2909 107.268C76.5721 102.799 76.2909 98.3302 76.4471 93.8615C76.5721 86.9865 77.1503 80.174 78.1815 73.424C74.119 78.7052 69.8846 83.8771 65.4784 88.9396C60.7596 94.3459 55.8846 99.6271 50.8534 104.783C45.8534 109.971 40.5565 114.83 34.9627 119.361C32.619 121.143 30.0878 122.658 27.369 123.908C23.5878 125.721 19.7596 126.315 15.8846 125.69C12.0409 125.096 8.82213 123.065 6.22838 119.596C3.69713 115.846 2.07213 111.736 1.35338 107.268C0.634626 102.799 0.353376 98.3302 0.509626 93.8615C0.759626 81.5177 2.40025 69.3615 5.4315 57.3927C8.494 45.424 15.3221 26.8615 25.9159 1.70523C26.4471 0.83023 27.119 0.408355 27.9315 0.439605C28.744 0.439605 29.4003 0.76773 29.9003 1.42398C30.4315 2.04898 30.494 2.84585 30.0878 3.8146C19.7753 27.9709 13.0565 45.5021 9.9315 56.4084C6.83775 67.3146 4.94713 78.424 4.25963 89.7365C3.97838 93.8615 3.9315 98.0177 4.119 102.205C4.33775 106.424 5.25963 110.455 6.88463 114.299C8.72838 118.486 11.369 121.158 14.8065 122.315C18.2753 123.471 22.0721 123.127 26.1971 121.283C28.7596 120.158 31.1659 118.768 33.4159 117.111C35.6659 115.455 37.8377 113.705 39.9315 111.861C54.5877 98.9552 67.5721 84.6896 78.8846 69.0646C79.5721 65.1584 80.4159 61.2677 81.4159 57.3927C84.4471 45.424 88.6815 33.8927 94.119 22.799C94.6503 21.924 95.3221 21.5021 96.1346 21.5334C96.9471 21.5334 97.6034 21.8615 98.1034 22.5177C98.6346 23.1427 98.6971 23.9396 98.2909 24.9084C93.1346 35.0021 88.994 45.5021 85.869 56.4084C82.7753 67.3146 80.8846 78.424 80.1971 89.7365C79.9159 93.8615 79.869 98.0177 80.0565 102.205C80.2753 106.424 81.1971 110.455 82.8221 114.299C84.6659 118.486 87.3065 121.158 90.744 122.315C94.2128 123.471 98.0096 123.127 102.135 121.283C104.697 120.158 107.103 118.768 109.353 117.111C111.603 115.455 113.775 113.705 115.869 111.861C137.994 92.3615 156.307 69.7521 170.807 44.0334C176.307 30.5334 181.307 18.7365 185.807 8.64273C186.557 6.98648 187.291 5.33023 188.01 3.67398C188.385 2.89273 188.932 2.36148 189.65 2.08023C190.4 1.79898 191.166 1.84585 191.947 2.22085C192.603 2.5646 193.041 3.08023 193.26 3.76773C193.51 4.42398 193.494 5.09585 193.213 5.78335C193.213 5.84585 193.197 5.89273 193.166 5.92398C193.166 5.95523 193.15 5.98648 193.119 6.01773V6.0646L193.072 6.11148C192.385 7.76773 191.697 9.42398 191.01 11.0802C190.603 11.9865 190.213 12.8927 189.838 13.799C189.025 16.0177 187.322 19.7052 184.728 24.8615C184.228 25.8615 183.713 26.8771 183.182 27.9084C178.338 38.4709 173.853 49.174 169.728 60.0177C166.947 66.7052 164.432 73.8459 162.182 81.4396C162.15 81.5334 162.119 81.6271 162.088 81.7209C161.682 83.2521 161.307 84.8146 160.963 86.4084C160.025 90.9709 159.682 95.1584 159.932 98.9709C160.182 102.815 161.4 105.643 163.588 107.455C165.369 108.674 167.26 108.971 169.26 108.346C171.322 107.752 173.15 106.846 174.744 105.627C178.807 102.408 182.385 98.6896 185.478 94.4709C188.51 90.2521 191.244 85.8771 193.682 81.3459L194.619 79.4709C194.963 78.6896 195.432 78.3771 196.025 78.5334C196.744 78.6584 196.916 79.2521 196.541 80.3146C195.478 85.6271 194.369 90.9865 193.213 96.3927C192.494 99.674 191.728 102.94 190.916 106.19C195.697 104.533 200.603 103.424 205.635 102.861C206.041 102.83 206.322 102.971 206.478 103.283C206.666 103.565 206.697 103.861 206.572 104.174C206.478 104.486 206.213 104.69 205.775 104.783C203.244 104.908 200.744 105.268 198.275 105.861C195.619 106.486 193.01 107.252 190.447 108.158C187.603 119.627 183.916 130.799 179.385 141.674C174.853 152.549 169.15 162.783 162.275 172.377C162.182 172.502 162.103 172.612 162.041 172.705C160.103 175.455 158.025 178.096 155.807 180.627C153.557 183.158 150.932 185.252 147.932 186.908C144.869 188.471 141.822 188.924 138.791 188.268C135.76 187.58 133.213 185.862 131.15 183.112C128.713 179.455 127.728 175.174 128.197 170.268C128.697 165.362 129.978 160.518 132.041 155.737C134.103 150.955 136.291 146.908 138.603 143.596C142.853 137.408 147.744 131.768 153.275 126.674C156.119 124.237 159.119 122.018 162.275 120.018C165.432 118.018 168.666 116.143 171.978 114.393C176.947 111.861 182.057 109.565 187.307 107.502C189.275 100.846 191.088 94.1427 192.744 87.3927C191.619 89.3615 190.4 91.3302 189.088 93.299C186.057 97.8615 182.807 101.783 179.338 105.065C175.869 108.346 172.291 110.377 168.603 111.158C166.228 111.565 164.025 111.096 161.994 109.752C159.588 107.971 158.025 105.315 157.307 101.783C156.619 98.2209 156.51 94.2677 156.978 89.924C157.228 87.674 157.588 85.4552 158.057 83.2677C158.275 82.424 158.51 81.5334 158.76 80.5959Z" fill="black"/>
</svg>
