<svg width="194" height="144" viewBox="0 0 194 144" fill="none" xmlns="http://www.w3.org/2000/svg">
<path id="sh" d="M78.0047 73.424C73.9422 78.7052 69.7079 83.8771 65.3016 88.9396C60.5829 94.3459 55.7079 99.6271 50.6766 104.783C45.6766 109.971 40.3797 114.83 34.786 119.361C32.4422 121.143 29.911 122.658 27.1922 123.908C23.411 125.721 19.5829 126.315 15.7079 125.69C11.8641 125.096 8.64537 123.065 6.05162 119.596C3.52037 115.846 1.89537 111.736 1.17662 107.268C0.457868 102.799 0.176618 98.3302 0.332868 93.8615C0.582868 81.5177 2.22349 69.3615 5.25474 57.3927C8.31724 45.424 15.1454 26.8615 25.7391 1.70523C26.2704 0.83023 26.9422 0.408355 27.7547 0.439605C28.5672 0.439605 29.2235 0.76773 29.7235 1.42398C30.2547 2.04898 30.3172 2.84585 29.911 3.8146C19.5985 27.9709 12.8797 45.5021 9.75474 56.4084C6.66099 67.3146 4.77037 78.424 4.08287 89.7365C3.80162 93.8615 3.75474 98.0177 3.94224 102.205C4.16099 106.424 5.08287 110.455 6.70787 114.299C8.55162 118.486 11.1922 121.158 14.6297 122.315C18.0985 123.471 21.8954 123.127 26.0204 121.283C28.5829 120.158 30.9891 118.768 33.2391 117.111C35.4891 115.455 37.661 113.705 39.7547 111.861C54.411 98.9552 67.3954 84.6896 78.7079 69.0646C79.3954 65.1584 80.2391 61.2677 81.2391 57.3927C84.2704 45.424 88.5047 33.8927 93.9422 22.799C94.4735 21.924 95.1454 21.5021 95.9579 21.5334C96.7704 21.5334 97.4266 21.8615 97.9266 22.5177C98.4579 23.1427 98.5204 23.9396 98.1141 24.9084C92.9579 35.0021 88.8172 45.5021 85.6922 56.4084C82.5985 67.3146 80.7079 78.424 80.0204 89.7365C79.7391 93.8615 79.6922 98.0177 79.8797 102.205C80.0985 106.424 81.0204 110.455 82.6454 114.299C84.4891 118.486 87.1297 121.158 90.5672 122.315C94.036 123.471 97.8329 123.127 101.958 121.283C104.52 120.158 106.927 118.768 109.177 117.111C111.427 115.455 113.598 113.705 115.692 111.861C137.817 92.3615 156.13 69.7521 170.63 44.0334C176.13 30.5334 181.13 18.7365 185.63 8.64273C186.38 6.98648 187.114 5.33023 187.833 3.67398C188.208 2.89273 188.755 2.36148 189.474 2.08023C190.224 1.79898 190.989 1.84585 191.77 2.22085C192.427 2.5646 192.864 3.08023 193.083 3.76773C193.333 4.42398 193.317 5.09585 193.036 5.78335C193.036 5.84585 193.02 5.89273 192.989 5.92398C192.989 5.95523 192.974 5.98648 192.942 6.01773V6.0646L192.895 6.11148C192.208 7.76773 191.52 9.42398 190.833 11.0802C190.427 11.9865 190.036 12.8927 189.661 13.799C188.849 16.0177 187.145 19.7052 184.552 24.8615C184.052 25.8615 183.536 26.8771 183.005 27.9084C178.161 38.4709 173.677 49.174 169.552 60.0177C165.427 70.8615 161.989 81.8771 159.239 93.0646C156.489 104.283 154.77 115.721 154.083 127.377C153.895 128.815 153.911 130.58 154.13 132.674C154.38 134.799 154.958 136.612 155.864 138.112C156.802 139.643 158.239 140.252 160.177 139.94C160.895 139.846 161.427 140.018 161.77 140.455C162.114 140.924 162.223 141.44 162.098 142.002C162.005 142.565 161.614 142.955 160.927 143.174C158.364 143.674 156.302 143.205 154.739 141.768C153.177 140.362 152.052 138.518 151.364 136.237C150.677 133.955 150.364 131.768 150.427 129.674C150.802 117.112 152.364 104.783 155.114 92.6896C157.864 80.5959 161.395 68.6896 165.708 56.9709C158.208 68.1271 150.052 78.7834 141.239 88.9396C136.52 94.3459 131.645 99.6271 126.614 104.783C121.614 109.971 116.317 114.83 110.723 119.361C108.38 121.143 105.848 122.658 103.13 123.908C99.3485 125.721 95.5204 126.315 91.6454 125.69C87.8016 125.096 84.5829 123.065 81.9891 119.596C79.4579 115.846 77.8329 111.736 77.1141 107.268C76.3954 102.799 76.1141 98.3302 76.2704 93.8615C76.3954 86.9865 76.9735 80.174 78.0047 73.424Z" fill="black"/>
</svg>
