<svg width="135" height="131" viewBox="0 0 135 131" fill="none" xmlns="http://www.w3.org/2000/svg">
<path id="t" d="M132.601 8.33037C133.258 8.42412 133.773 8.72099 134.148 9.22099C134.523 9.72099 134.68 10.2991 134.617 10.9554C134.523 11.6116 134.226 12.1429 133.726 12.5491C133.226 12.9241 132.648 13.0647 131.992 12.971C120.555 11.1897 109.023 10.3929 97.3983 10.5804C85.8046 10.7366 74.2577 11.4866 62.7577 12.8304C61.2264 13.0179 59.3983 13.2679 57.2733 13.5804C46.4295 38.1741 38.0702 63.6116 32.1952 89.8929C34.1014 95.4241 34.742 101.487 34.117 108.08C33.5233 114.674 31.0389 121.924 26.6639 129.83C26.0702 130.518 25.3827 130.846 24.6014 130.815C23.8202 130.783 23.1483 130.487 22.5858 129.924C22.0233 129.362 21.7889 128.627 21.8827 127.721C21.9139 127.596 21.9295 127.424 21.9295 127.205C21.9608 127.018 21.992 126.815 22.0233 126.596C22.0545 126.127 22.0858 125.783 22.117 125.565C22.8358 118.783 23.742 112.018 24.8358 105.268C25.8045 99.2679 26.9139 93.2835 28.1639 87.3147C25.6952 81.0335 22.1327 74.8772 17.4764 68.846C16.0077 66.7522 14.4608 64.6741 12.8358 62.6116C10.2733 59.3616 7.88267 56.0022 5.66392 52.5335C3.47642 49.0647 1.85142 45.3304 0.788923 41.3304C0.320173 38.6741 0.726423 36.1897 2.00767 33.8772C3.28892 31.5335 4.9608 29.5804 7.0233 28.0179C12.242 24.2054 18.7733 21.0179 26.617 18.4554C34.492 15.8929 42.867 13.846 51.742 12.3147C53.2108 8.84599 54.7264 5.40849 56.2889 2.00224C56.8827 0.908491 57.6795 0.361616 58.6795 0.361616C59.6795 0.330366 60.492 0.689741 61.117 1.43974C61.7733 2.18974 61.8827 3.17412 61.4452 4.39287C60.3827 6.64287 59.3358 8.92412 58.3045 11.2366C73.2733 9.11162 86.2889 7.83037 97.3514 7.39287C103.226 7.14287 109.086 7.06474 114.93 7.15849C120.805 7.25224 126.695 7.64287 132.601 8.33037ZM26.8045 121.44C30.6795 112.815 31.9764 104.627 30.6952 96.8772C28.9764 105.315 27.5545 113.799 26.4295 122.33C26.5545 122.018 26.6795 121.721 26.8045 121.44ZM35.8514 56.7991C40.0702 42.4554 45.0545 28.3929 50.8045 14.6116C46.0545 15.3929 40.992 16.4554 35.617 17.7991C30.242 19.1116 25.117 20.721 20.242 22.6272C15.367 24.5335 11.3045 26.7991 8.05455 29.4241C4.80455 32.0179 2.92955 34.9866 2.42955 38.3304C2.67955 42.2366 4.03892 46.1741 6.50767 50.1429C9.00767 54.0804 12.0077 58.1897 15.5077 62.471C17.9452 65.5335 20.3514 68.7366 22.7264 72.0804C25.1327 75.3929 27.2889 78.9085 29.1952 82.6272C31.1327 73.9397 33.3514 65.3304 35.8514 56.7991Z" fill="black"/>
</svg>
