<svg width="131" height="192" viewBox="0 0 131 192" fill="none" xmlns="http://www.w3.org/2000/svg">
<path id="ts" d="M83.9959 172.377C82.5897 174.721 81.0897 177.033 79.4959 179.315C77.8709 181.596 76.0428 183.658 74.0116 185.502C71.4178 187.877 68.5428 189.174 65.3866 189.393C62.2303 189.612 59.5741 188.174 57.4178 185.08C56.0428 182.487 55.3866 179.705 55.4491 176.737C55.5116 173.737 55.8397 170.83 56.4335 168.018C57.5897 163.112 59.3397 158.408 61.6835 153.908C63.996 149.377 66.6991 145.112 69.7928 141.112C72.4803 137.643 75.3866 134.377 78.5116 131.315C83.1366 127.158 88.1678 123.565 93.6053 120.533C99.0116 117.471 104.621 114.83 110.433 112.611C107.246 122.924 103.512 133.033 99.2303 142.94C94.949 152.846 90.0116 162.44 84.4178 171.721L83.9959 172.377ZM85.8241 84.7677C88.4803 76.3615 91.2303 69.1115 94.0741 63.0177C98.1991 52.174 102.683 41.4708 107.527 30.9083C108.058 29.8771 108.574 28.8615 109.074 27.8615C111.668 22.7052 114.137 17.4865 116.48 12.2052C116.855 11.299 117.246 10.3927 117.652 9.48647C118.34 7.83022 119.027 6.17397 119.715 4.51772L119.762 4.47084V4.42397C119.793 4.39272 119.808 4.36147 119.808 4.33022C119.84 4.29897 119.855 4.25209 119.855 4.18959C120.137 3.50209 120.152 2.83022 119.902 2.17397C119.683 1.48647 119.246 0.970843 118.59 0.627093C117.808 0.252093 117.043 0.205218 116.293 0.486468C115.574 0.767718 115.027 1.29897 114.652 2.08022C113.933 3.73647 113.199 5.39272 112.449 7.04897C106.418 20.2052 100.652 33.5333 95.1522 47.0333C80.6522 72.7521 62.3397 95.3615 40.2147 114.861C38.121 116.705 35.9491 118.455 33.6991 120.111C31.4491 121.768 29.0428 123.158 26.4803 124.283C22.3553 126.127 18.5585 126.471 15.0897 125.315C11.6522 124.158 9.01158 121.486 7.16783 117.299C5.54283 113.455 4.62095 109.424 4.4022 105.205C4.2147 101.018 4.26158 96.8615 4.54283 92.7365C5.23033 81.424 7.12095 70.3146 10.2147 59.4084C13.3397 48.5021 17.4803 38.0021 22.6366 27.9083C23.0428 26.9396 22.9803 26.1427 22.4491 25.5177C21.9491 24.8615 21.2928 24.5333 20.4803 24.5333C19.6678 24.5021 18.996 24.924 18.4647 25.799C13.0272 36.8927 8.7772 48.424 5.7147 60.3927C2.68345 72.3615 1.04283 84.5177 0.792829 96.8615C0.636579 101.33 0.917829 105.799 1.63658 110.268C2.35533 114.736 3.98033 118.846 6.51158 122.596C9.10533 126.065 12.3241 128.096 16.1678 128.69C20.0428 129.315 23.871 128.721 27.6522 126.908C30.371 125.658 32.9022 124.143 35.246 122.361C40.8397 117.83 46.1366 112.971 51.1366 107.783C56.1678 102.627 61.0428 97.3459 65.7616 91.9396C74.5741 81.7834 82.7303 71.1271 90.2303 59.9709C86.3241 70.5959 83.5116 79.3771 81.7928 86.3146C81.3241 88.5021 80.9647 90.7209 80.7147 92.9709C80.2459 97.3146 80.3553 101.268 81.0428 104.83C81.7616 108.361 83.3241 111.018 85.7303 112.799C87.7616 114.143 89.9647 114.611 92.3397 114.205C96.0272 113.424 99.6053 111.393 103.074 108.111C106.543 104.83 109.793 100.908 112.824 96.3459C114.137 94.3771 115.355 92.4084 116.48 90.4396C114.824 97.1896 113.012 103.893 111.043 110.549C105.793 112.611 100.683 114.908 95.7147 117.44C92.4022 119.19 89.1678 121.065 86.0116 123.065C82.8553 125.065 79.8553 127.283 77.0116 129.721C71.4803 134.815 66.5897 140.455 62.3397 146.643C60.0272 149.955 57.8397 154.002 55.7772 158.783C53.7147 163.565 52.4335 168.408 51.9335 173.315C51.4647 178.221 52.4491 182.502 54.8866 186.158C56.9491 188.908 59.496 190.627 62.5272 191.315C65.5585 191.971 68.6053 191.518 71.6678 189.955C74.6678 188.299 77.2928 186.205 79.5428 183.674C81.7616 181.143 83.8397 178.502 85.7772 175.752C85.8397 175.658 85.9178 175.549 86.0116 175.424C92.8866 165.83 98.5897 155.596 103.121 144.721C107.652 133.846 111.34 122.674 114.183 111.205C116.746 110.299 119.355 109.533 122.012 108.908C124.48 108.315 126.98 107.955 129.512 107.83C129.949 107.736 130.215 107.533 130.308 107.221C130.433 106.908 130.402 106.611 130.215 106.33C130.058 106.018 129.777 105.877 129.371 105.908C124.34 106.471 119.433 107.58 114.652 109.236C115.465 105.986 116.23 102.721 116.949 99.4396C118.105 94.0646 119.215 88.7052 120.277 83.3615C120.652 82.299 120.48 81.7052 119.762 81.5802C119.168 81.424 118.699 81.7365 118.355 82.5177C118.043 83.1427 117.73 83.7677 117.418 84.3927C114.98 88.924 112.246 93.299 109.215 97.5177C106.121 101.736 102.543 105.455 98.4803 108.674C96.8865 109.893 95.0584 110.799 92.9959 111.393C90.9959 112.018 89.1053 111.721 87.3241 110.502C85.1366 108.69 83.9178 105.861 83.6678 102.018C83.4178 98.2052 83.7616 94.0177 84.6991 89.4552C85.0428 87.8615 85.4178 86.299 85.8241 84.7677Z" fill="black"/>
</svg>
