<svg width="149" height="142" viewBox="0 0 149 142" fill="none" xmlns="http://www.w3.org/2000/svg">
<path id="tz" d="M97.3572 41.7991C103.982 40.4866 110.42 40.0334 116.67 40.4397C122.92 40.8459 128.357 42.3303 132.982 44.8928C137.607 47.4553 140.795 51.2991 142.545 56.4241C144.326 61.5491 144.06 68.1585 141.748 76.2522C139.342 84.096 135.388 91.596 129.888 98.7522C124.388 105.908 117.888 112.174 110.388 117.549C102.857 122.924 94.8572 126.862 86.3884 129.362C78.2009 131.768 72.3416 132.455 68.8103 131.424C65.2791 130.393 63.5603 125.924 63.6541 118.018C64.0916 114.112 65.1697 107.94 66.8884 99.5022L68.3884 92.5178C71.9197 76.7053 76.3572 61.2053 81.7009 46.0178C86.7947 44.2366 92.0134 42.8303 97.3572 41.7991ZM90.7009 8.5647C88.8884 10.4084 86.9353 12.1428 84.8416 13.7678C81.9978 15.9553 79.2478 17.8772 76.5916 19.5334C72.1853 22.2209 67.5916 24.5959 62.8103 26.6584C58.0291 28.7522 53.0759 30.1272 47.9509 30.7834C45.9197 31.0022 43.8728 30.8616 41.8103 30.3616C39.7791 29.8616 38.2947 28.6428 37.3572 26.7053C36.4197 24.0178 36.8103 20.9553 38.5291 17.5178C39.0291 16.5491 39.5916 15.5803 40.2166 14.6116C41.3728 12.8928 42.9353 11.2834 44.9041 9.78345C47.6228 8.1897 50.1697 6.73657 52.5447 5.42407L53.0134 5.1897H53.0603V5.14282C53.6228 4.83032 53.9822 4.3772 54.1384 3.78345C54.3259 3.1897 54.2791 2.61157 53.9978 2.04907C53.6541 1.45532 53.1853 1.0647 52.5916 0.877197C51.9978 0.689697 51.4041 0.752197 50.8103 1.0647C47.2166 3.0022 43.5603 4.67407 39.8416 6.08032C36.2166 7.51782 32.4666 8.26782 28.5916 8.33032C26.5916 8.14282 25.5603 9.0022 25.4978 10.9084C25.4353 12.8147 26.7791 13.5334 29.5291 13.0647C32.2166 13.0022 35.2166 12.3772 38.5291 11.1897C38.1853 11.6272 37.8416 12.2366 37.4978 13.0178C36.4353 14.8928 35.5759 16.7522 34.9197 18.5959C33.7009 22.0022 33.6697 25.0803 34.8259 27.8303C35.8884 30.0178 37.5447 31.5491 39.7947 32.4241C43.3572 33.6116 47.4666 33.6741 52.1228 32.6116C56.8103 31.5803 61.6072 29.8772 66.5134 27.5022C71.4197 25.1272 75.9822 22.5334 80.2009 19.7209C83.3572 17.6584 86.0759 15.7209 88.3572 13.9084C88.2322 14.2522 88.0916 14.5959 87.9353 14.9397L86.9978 17.2366C83.1228 26.5178 79.6072 35.9084 76.4509 45.4084C68.0759 48.2834 59.9822 51.8616 52.1697 56.1428C45.4197 59.9553 38.6228 64.4866 31.7791 69.7366C24.9353 75.0178 18.8103 80.9085 13.4041 87.4085C7.99782 93.9397 4.06032 100.971 1.59157 108.502C-0.158433 114.158 -0.314683 119.658 1.12282 125.002C2.52907 130.377 5.29469 134.659 9.41969 137.846C13.5759 141.065 18.8416 142.284 25.2166 141.502C26.2166 141.252 26.8259 140.737 27.0447 139.955C27.2634 139.174 27.1384 138.44 26.6697 137.752C26.2322 137.065 25.4978 136.768 24.4666 136.862C21.2791 137.393 18.2322 137.034 15.3259 135.784C12.4197 134.565 10.0759 132.596 8.29469 129.877C5.88844 126.002 4.71657 121.987 4.77907 117.83C4.84157 113.674 5.73219 109.565 7.45094 105.502C9.16969 101.44 11.3416 97.5803 13.9666 93.9241C16.5916 90.2678 19.2947 87.0022 22.0759 84.1272C29.3572 76.6585 37.3572 70.0335 46.0759 64.2522C54.7947 58.471 63.9197 53.4709 73.4509 49.2522C74.1072 48.9709 74.7791 48.6897 75.4666 48.4084C74.2791 52.0647 73.1384 55.7366 72.0447 59.4241C69.5447 67.9553 67.3259 76.5647 65.3884 85.2522L64.3572 89.9397C63.1072 95.9085 61.9978 101.893 61.0291 107.893C59.9353 114.643 59.8259 120.471 60.7009 125.377C61.6072 130.283 63.8572 133.096 67.4509 133.815C71.0447 134.565 76.0447 134.19 82.4509 132.69C90.6072 131.159 98.4353 128.299 105.935 124.112C113.467 119.924 120.263 114.846 126.326 108.877C132.388 102.94 137.31 96.5178 141.092 89.6116C143.654 84.9866 145.576 80.1272 146.857 75.0335C148.138 69.971 148.498 65.0491 147.935 60.2678C147.342 55.5178 145.529 51.2991 142.498 47.6116C139.498 43.9553 134.982 41.2366 128.951 39.4553C121.576 37.6428 114.138 37.2209 106.638 38.1897C99.1384 39.1584 91.7947 40.7209 84.6072 42.8772C83.9197 43.0647 83.2478 43.2522 82.5916 43.4397C85.8728 34.2522 89.4978 25.1741 93.4666 16.2053L94.4978 13.8616C95.5291 11.5491 96.5759 9.26782 97.6384 7.01782C98.0759 5.79907 97.9822 4.8147 97.3572 4.0647C96.7009 3.3147 95.8728 2.9397 94.8728 2.9397C93.8728 2.97095 93.0759 3.53345 92.4822 4.6272C91.8884 5.9397 91.2947 7.2522 90.7009 8.5647Z" fill="black"/>
</svg>
