<svg width="123" height="154" viewBox="0 0 123 154" fill="none" xmlns="http://www.w3.org/2000/svg">
<path id="v" d="M111.538 96.096C117.07 99.471 120.46 102.971 121.71 106.596C122.991 110.221 122.398 113.674 119.929 116.955C117.491 120.237 113.476 123.049 107.882 125.393C99.4134 128.487 89.679 130.643 78.679 131.862C67.7102 133.112 56.5696 133.283 45.2571 132.377C44.7884 134.252 44.3196 136.143 43.8509 138.049C43.5696 139.174 43.304 140.315 43.054 141.471C42.2102 145.346 41.0852 149.158 39.679 152.908C39.554 153.221 39.3352 153.44 39.0227 153.565C38.7415 153.69 38.4446 153.69 38.1321 153.565C37.6321 153.346 37.3821 152.971 37.3821 152.44C37.3509 152.346 37.3352 152.237 37.3352 152.112C36.2102 145.112 35.1946 138.096 34.2884 131.065C21.6634 129.127 10.8352 125.502 1.80398 120.19C1.36648 119.908 1.10085 119.533 1.0071 119.065C0.913352 118.596 0.991477 118.143 1.24148 117.705C1.52273 117.268 1.91335 117.002 2.41335 116.908C2.91335 116.815 3.3821 116.908 3.8196 117.19C6.97585 119.408 10.3665 121.283 13.9915 122.815C20.0852 125.252 26.7571 127.143 34.0071 128.487C33.6009 124.987 33.2727 121.487 33.0227 117.987C32.054 106.299 32.5384 94.6741 34.4759 83.1116C36.4446 71.5179 40.3821 60.596 46.2884 50.346C50.7884 42.5022 56.429 35.4241 63.2102 29.1116C70.0227 22.7679 77.7727 18.221 86.4602 15.471C88.5227 10.7522 90.5696 6.04911 92.6009 1.36161C93.1009 0.455357 93.7571 0.00223214 94.5696 0.00223214C95.3821 -0.0290179 96.054 0.267857 96.5852 0.892857C97.1165 1.51786 97.179 2.33036 96.7727 3.33036C94.8977 6.95536 93.054 10.6116 91.2415 14.2991C92.0852 14.1116 92.929 13.9554 93.7727 13.8304C97.6165 13.3304 101.476 13.5647 105.351 14.5335C109.226 15.5022 112.429 17.5647 114.96 20.721C116.866 23.2835 118.038 26.1272 118.476 29.2522C118.913 32.3772 118.945 35.4866 118.57 38.5804C117.538 45.5804 114.616 52.0022 109.804 57.846C105.023 63.6897 99.304 68.8929 92.6477 73.4554C86.0227 78.0179 79.4134 81.8929 72.8196 85.0804C74.1634 85.1116 75.5071 85.1897 76.8509 85.3147C82.9446 85.971 88.9134 87.1585 94.7571 88.8772C100.632 90.6272 106.226 93.0335 111.538 96.096ZM48.5384 51.6116C43.8821 59.4554 40.5227 67.6429 38.4602 76.1741C36.3977 84.7054 35.2884 93.4085 35.1321 102.283C34.9759 111.158 35.4134 120.049 36.4446 128.955C38.3821 129.268 40.3196 129.533 42.2571 129.752C46.8509 114.096 52.1165 98.6741 58.054 83.4866C63.9915 68.2679 70.1634 53.1585 76.5696 38.1585C79.3196 31.7835 82.1009 25.4085 84.9134 19.0335C77.0696 21.8772 70.0852 26.2366 63.9602 32.1116C57.8352 37.9866 52.6946 44.4866 48.5384 51.6116ZM40.2415 137.158C40.679 135.44 41.1477 133.737 41.6477 132.049C39.9915 131.862 38.3665 131.658 36.7727 131.44C37.2727 135.69 37.8665 139.893 38.554 144.049C38.9915 142.018 39.4759 139.971 40.0071 137.908C40.0696 137.658 40.1477 137.408 40.2415 137.158ZM117.679 110.721C117.804 109.221 117.429 107.846 116.554 106.596C115.71 105.346 114.741 104.221 113.648 103.221C110.179 100.19 105.726 97.3772 100.288 94.7835C94.8821 92.1897 89.2727 90.1897 83.4602 88.7835C77.679 87.4085 72.4915 87.0022 67.8977 87.5647C67.554 87.6585 67.2102 87.7522 66.8665 87.846C66.429 88.0335 66.0071 88.221 65.6009 88.4085L65.554 88.3616C65.4602 88.4241 65.3509 88.4866 65.2259 88.5491C64.7259 88.6429 64.2727 88.5647 63.8665 88.3147C63.4602 88.0647 63.1946 87.7054 63.0696 87.2366C62.9446 86.7679 62.9759 86.346 63.1634 85.971C63.3821 85.596 63.6946 85.3147 64.1009 85.1272C69.2571 82.6585 74.2884 79.9554 79.1946 77.0179C83.9446 74.2054 88.8821 70.8772 94.0071 67.0335C99.1634 63.1585 103.663 58.8147 107.507 54.0022C111.382 49.1585 113.804 43.8616 114.773 38.1116C115.835 30.5491 114.554 24.9397 110.929 21.2835C107.304 17.6272 101.695 16.1429 94.1009 16.8304C92.5384 17.0491 91.0071 17.3304 89.5071 17.6741C80.5071 35.7366 72.2571 54.1272 64.7571 72.846C57.2571 91.5335 50.9446 110.643 45.8196 130.174C56.5071 131.174 67.1165 130.987 77.6477 129.612C88.2102 128.268 97.7415 125.658 106.241 121.783C108.679 120.596 111.023 119.127 113.273 117.377C115.554 115.627 117.023 113.408 117.679 110.721Z" fill="black"/>
</svg>
