<svg width="99" height="122" viewBox="0 0 99 122" fill="none" xmlns="http://www.w3.org/2000/svg">
<path id="x" d="M98.0391 5.37711C98.6016 4.62711 98.8203 3.83023 98.6953 2.98648C98.6016 2.11148 98.1953 1.39273 97.4766 0.830234C96.7266 0.267734 95.9297 0.0489835 95.086 0.173983C94.2422 0.298983 93.5235 0.705233 92.9297 1.39273C92.8985 1.48648 92.3828 2.18961 91.3828 3.50211C90.3828 4.81461 89.211 6.33023 87.8672 8.04898C86.5547 9.76773 85.3985 11.2834 84.3985 12.5959C83.3985 13.9084 82.8672 14.5959 82.8047 14.6584C74.336 25.6896 65.7891 36.6427 57.1641 47.5177C49.3828 57.424 41.4609 67.2521 33.3984 77.0021C25.4609 86.5959 17.6797 96.2365 10.0547 105.924C7.92969 108.58 5.71094 111.221 3.39844 113.846C2.89844 114.377 2.41406 114.924 1.94531 115.486C1.88281 115.549 1.82031 115.627 1.75781 115.721C1.44531 116.002 1.17969 116.33 0.960938 116.705C0.742188 117.08 0.710938 117.486 0.867188 117.924C1.05469 118.455 1.41406 118.799 1.94531 118.955C2.50781 119.111 3.00781 119.018 3.44531 118.674C5.69531 116.893 7.88281 115.002 10.0078 113.002C16.0391 107.408 20.5703 100.971 23.6016 93.6896C26.6328 86.4084 28.6328 78.7521 29.6016 70.7209C30.6016 62.6896 31.0234 54.7365 30.8672 46.8615C30.5859 34.299 29.7891 21.7521 28.4766 9.22086C28.3203 8.25211 27.8672 7.62711 27.1172 7.34586C26.3984 7.03336 25.6797 7.06461 24.9609 7.43961C24.2734 7.78336 23.8984 8.42398 23.8359 9.36148C23.8984 11.7677 24.0703 14.1584 24.3516 16.5334C24.3828 16.9084 24.4141 17.2834 24.4453 17.6584C27.5078 42.6896 33.2578 67.0802 41.6953 90.8302C41.7891 91.049 41.8828 91.2677 41.9766 91.4865C43.0703 94.3615 44.4297 97.5802 46.0547 101.143C47.6797 104.736 49.6016 108.174 51.8203 111.455C54.0391 114.736 56.586 117.33 59.461 119.236C62.336 121.174 65.5547 121.893 69.1172 121.393C69.9922 121.237 70.8203 121.002 71.6016 120.69C72.1953 120.377 72.6016 119.924 72.8203 119.33C73.0391 118.768 73.0235 118.174 72.7735 117.549C72.461 116.955 72.0078 116.549 71.4141 116.33C70.8516 116.143 70.2578 116.174 69.6328 116.424C68.6641 116.893 67.6641 117.158 66.6328 117.221C64.9141 117.315 63.2891 116.94 61.7578 116.096C60.2578 115.252 58.9141 114.221 57.7266 113.002C53.1016 107.94 49.0391 101.065 45.5391 92.3771C42.0391 83.6896 39.0859 74.2521 36.6797 64.0646C34.2734 53.8459 32.3828 43.924 31.0078 34.299C29.6641 24.674 28.8203 16.4084 28.4766 9.50211L23.8359 9.92398C26.0547 20.7365 27.5703 31.6896 28.3828 42.7834C29.2266 53.8771 28.8516 64.9084 27.2578 75.8771C25.8828 84.8459 23.2266 92.6896 19.2891 99.4084C15.3828 106.127 9.78906 112.205 2.50781 117.643C2.44531 117.643 2.38281 117.627 2.32031 117.596C2.28906 117.596 2.25781 117.565 2.22656 117.502C2.19531 117.471 2.19531 117.424 2.22656 117.361C2.22656 117.33 2.22656 117.315 2.22656 117.315C2.25781 117.315 2.27344 117.299 2.27344 117.268C35.8047 81.3615 67.7266 44.0646 98.0391 5.37711Z" fill="black"/>
</svg>
