<svg width="101" height="133" viewBox="0 0 101 133" fill="none" xmlns="http://www.w3.org/2000/svg">
<path id="y" d="M50.6992 94.6428C51.3867 92.799 52.0898 90.9709 52.8086 89.1584C59.6523 72.4084 67.1836 55.9709 75.4023 39.8459C69.2461 48.3459 62.9805 55.9709 56.6055 62.7209C50.2617 69.4709 44.3555 73.924 38.8867 76.0803C37.1055 76.7053 35.3086 76.8772 33.4961 76.5959C31.7148 76.3147 30.0273 75.7053 28.4336 74.7678C25.4336 72.9553 23.2305 70.2522 21.8242 66.6584C20.4492 63.0334 19.6211 59.0022 19.3398 54.5647C19.0898 50.1272 19.1523 45.7834 19.5273 41.5334C19.9023 37.2834 20.3398 33.6272 20.8398 30.5647C21.3711 27.2209 22.0586 23.8928 22.9023 20.5803C23.1836 19.7366 23.668 19.2522 24.3555 19.1272C25.0742 18.9709 25.7148 19.1272 26.2773 19.5959C26.8398 20.0334 27.0586 20.6897 26.9336 21.5647C26.2773 24.9084 25.5898 29.0178 24.8711 33.8928C24.1836 38.7366 23.7617 43.7834 23.6055 49.0334C23.4805 54.2522 23.918 59.0647 24.918 63.4709C25.9492 67.8459 27.8555 71.2365 30.6367 73.6428C33.6055 75.5178 37.1055 75.3772 41.1367 73.2209C45.168 71.0647 49.4648 67.5803 54.0273 62.7678C58.6211 57.924 63.1836 52.4241 67.7148 46.2678C72.2461 40.0803 76.4805 33.9084 80.418 27.7522C84.3867 21.5647 87.7773 16.0647 90.5898 11.2522C92.4336 7.93968 94.3086 4.62718 96.2148 1.31468C96.7148 0.533434 97.3242 0.174059 98.043 0.236559C98.793 0.267809 99.3867 0.580309 99.8242 1.17406C100.262 1.76781 100.277 2.48656 99.8711 3.33031C98.8711 5.26781 97.8711 7.18968 96.8711 9.09593C90.4961 21.1897 84.1836 33.3616 77.9336 45.6116C71.7148 57.8303 65.7461 70.1584 60.0273 82.5959C59.5586 83.6272 58.9648 84.9709 58.2461 86.6272C57.1836 89.0022 56.0273 91.6584 54.7773 94.5959L52.9492 99.0022C51.2305 102.815 49.3711 106.596 47.3711 110.346C45.4336 114.065 43.2617 117.643 40.8555 121.08C39.2617 123.33 37.2617 125.658 34.8555 128.065C32.418 130.502 29.8398 131.971 27.1211 132.471C24.3086 132.596 21.4805 131.018 18.6367 127.737C15.793 124.487 13.0117 120.268 10.293 115.08C9.54297 113.643 8.85547 112.299 8.23047 111.049C6.85547 107.518 5.58984 104.221 4.43359 101.158C2.83984 96.8147 1.58984 93.5334 0.683594 91.3147C0.339844 90.2522 0.339844 89.4084 0.683594 88.7834C0.996094 88.1272 1.43359 87.8459 1.99609 87.9397C2.55859 88.0022 3.01172 88.5334 3.35547 89.5334C5.26172 96.3459 7.43359 103.19 9.87109 110.065C9.99609 110.315 10.1055 110.565 10.1992 110.815C12.5117 115.971 15.3867 120.815 18.8242 125.346C19.793 126.596 20.9648 127.752 22.3398 128.815C23.6836 129.908 25.1992 130.393 26.8867 130.268C28.168 129.924 29.3398 129.283 30.4023 128.346C32.5586 126.346 34.4336 124.065 36.0273 121.502C42.4336 111.44 47.3242 102.487 50.6992 94.6428Z" fill="black"/>
</svg>
