<svg width="134" height="134" viewBox="0 0 134 134" fill="none" xmlns="http://www.w3.org/2000/svg">
<path id="ya" d="M38.6502 79.8303C34.0252 77.2991 30.2127 73.8459 27.2127 69.4709C23.3065 63.4397 21.7752 57.0803 22.619 50.3928C23.4315 43.7053 26.0252 37.5959 30.4002 32.0647C35.619 25.5647 42.1502 19.8928 49.994 15.0491C57.869 10.2053 65.8846 6.97094 74.0408 5.34594C74.2596 5.31469 74.494 5.26782 74.744 5.20532L75.6815 5.06469C75.9002 5.03344 76.1033 5.03344 76.2908 5.06469C76.4783 5.09594 76.6502 5.17407 76.8065 5.29907C77.119 5.61157 77.3846 6.01782 77.6033 6.51782C77.8221 7.04907 77.9783 7.58032 78.0721 8.11157C78.4158 10.2053 78.5408 12.3459 78.4471 14.5334C78.2283 19.0647 77.7127 23.5647 76.9002 28.0334C73.2752 46.9397 68.244 65.5178 61.8065 83.7678C59.0565 84.2053 56.2752 84.3303 53.4627 84.1428C48.2127 83.7678 43.2752 82.3303 38.6502 79.8303ZM68.0877 86.0647C67.1502 89.7834 66.3065 93.5178 65.5565 97.2678C64.7127 101.393 64.1502 105.549 63.869 109.737C63.6815 112.487 63.7596 115.549 64.1033 118.924C64.4471 122.33 65.5252 125.096 67.3377 127.221C69.4315 129.096 72.6033 129.658 76.8533 128.908C81.1346 128.19 85.9627 126.658 91.3377 124.315C96.744 122.002 102.166 119.377 107.603 116.44C113.041 113.502 117.947 110.768 122.322 108.237C126.478 105.799 129.697 104.018 131.978 102.893C132.916 102.237 133.322 101.487 133.197 100.643C133.103 99.7991 132.681 99.1584 131.931 98.7209C131.213 98.2834 130.385 98.3459 129.447 98.9084C122.853 103.94 116.01 108.58 108.916 112.83C104.103 115.768 99.1658 118.518 94.1033 121.08C89.0721 123.643 83.7908 125.596 78.2596 126.94C76.6971 127.283 75.0565 127.44 73.3377 127.408C71.619 127.408 70.1346 126.83 68.8846 125.674C68.1033 124.58 67.6033 123.346 67.3846 121.971C66.9783 119.033 66.9627 116.08 67.3377 113.112C68.3377 104.424 70.3377 94.7834 73.3377 84.1897C75.744 83.3459 77.5565 82.7522 78.7752 82.4084C79.7752 82.0022 80.3221 81.3772 80.4158 80.5334C80.5408 79.7209 80.3065 79.0022 79.7127 78.3772C79.119 77.7834 78.3065 77.6428 77.2752 77.9553C76.9002 78.0803 76.1346 78.3459 74.9783 78.7522C75.9783 75.5334 76.9627 72.5178 77.9315 69.7053C83.494 53.5491 90.3065 38.8928 98.369 25.7366C98.5252 25.9241 98.7283 26.0959 98.9783 26.2522C99.5721 26.5334 100.166 26.5959 100.76 26.4397C101.353 26.2522 101.822 25.8772 102.166 25.3147C102.197 25.2522 102.556 24.5803 103.244 23.2991C103.963 21.9866 104.806 20.4084 105.775 18.5647C106.588 17.0959 107.369 15.6741 108.119 14.2991C108.869 12.8928 109.494 11.7366 109.994 10.8303C110.494 9.92407 110.744 9.45532 110.744 9.42407C111.244 8.42407 111.119 7.50219 110.369 6.65844C109.869 6.18969 109.306 5.95532 108.681 5.95532C108.088 5.95532 107.541 6.18969 107.041 6.65844C103.947 9.65844 101.15 12.8928 98.6502 16.3616C91.4627 26.7053 85.4315 37.6897 80.5565 49.3147C76.244 59.5959 72.5721 70.0959 69.5408 80.8147C68.4783 81.2834 67.6033 81.7209 66.9158 82.1272C67.8533 79.4084 68.7752 76.7053 69.6815 74.0178C70.244 72.3303 71.1815 69.3303 72.494 65.0178C73.8377 60.7366 75.2752 55.7366 76.8065 50.0178C78.3377 44.2991 79.6815 38.4553 80.8377 32.4866C81.994 26.5491 82.6815 21.0803 82.9002 16.0803C83.1502 11.1116 82.6346 7.22094 81.3533 4.40844C80.0721 1.62719 77.7596 0.50219 74.4158 1.03344C69.9158 1.87719 65.5721 3.22094 61.3846 5.06469C57.1971 6.93969 53.1815 9.14282 49.3377 11.6741C44.0565 14.9866 39.0877 18.9397 34.4315 23.5334C29.744 28.0959 26.0408 33.2209 23.3221 38.9084C20.6033 44.5959 19.5565 50.7522 20.1815 57.3772C20.9315 63.5334 23.1815 68.9241 26.9315 73.5491C30.6502 78.1741 35.244 81.7991 40.7127 84.4241C46.1815 87.0178 51.9158 88.3616 57.9158 88.4553L60.4471 88.1272L58.5721 92.7678C58.2596 93.6428 57.9315 94.5022 57.5877 95.3459C53.994 102.033 49.9627 108.549 45.494 114.893C43.869 117.143 42.1658 119.346 40.3846 121.502C38.5721 123.627 36.5408 125.533 34.2908 127.221C30.7283 129.971 27.1346 131.19 23.5096 130.877C19.8846 130.533 16.6815 128.533 13.9002 124.877C11.4315 121.533 9.61897 117.846 8.46272 113.815C7.40022 110.158 6.52522 106.487 5.83772 102.799C5.18147 98.4241 4.63459 94.0491 4.19709 89.6741C4.04084 88.6428 3.68147 88.0178 3.11897 87.7991C2.52522 87.5491 1.97834 87.6428 1.47834 88.0803C0.978343 88.5491 0.743968 89.2991 0.775218 90.3303C1.18147 94.0803 1.68147 97.7991 2.27522 101.487L2.97834 106.502C3.85334 110.877 5.16584 115.158 6.91584 119.346C8.63459 123.533 11.1658 127.158 14.5096 130.221C17.8221 132.971 21.4315 134.205 25.3377 133.924C29.2127 133.612 32.7908 132.143 36.0721 129.518C38.4158 128.112 40.6033 126.502 42.6346 124.69C47.4783 119.565 51.4315 114.533 54.494 109.596C57.2127 105.221 59.6502 100.69 61.8065 96.0022C62.8065 93.3772 63.9471 90.5491 65.2283 87.5178C66.0408 87.0491 66.994 86.5647 68.0877 86.0647Z" fill="black"/>
</svg>
