<svg width="93" height="127" viewBox="0 0 93 127" fill="none" xmlns="http://www.w3.org/2000/svg">
<path id="ye" d="M17.5625 34.8303C17.3438 36.0491 17.4844 36.9866 17.9844 37.6428C18.5156 38.2366 19.0781 38.4085 19.6719 38.1585C20.2969 37.9085 20.6562 37.1428 20.75 35.8616C20.9375 32.5491 21.9531 29.0335 23.7969 25.3147C24.7344 23.4397 25.5469 21.9397 26.2344 20.8147L24.3594 20.1585C21.5469 25.0647 19.2812 29.9553 17.5625 34.8303ZM83.1875 59.2053C86.0312 58.8616 88.8906 58.6272 91.7656 58.5022C92.2344 58.221 92.5156 57.6897 92.6094 56.9085C92.7344 56.1272 92.6719 55.3928 92.4219 54.7053C92.2031 54.0491 91.8438 53.7678 91.3438 53.8616C89.1875 54.6116 87.0156 55.2522 84.8281 55.7835L83.1875 56.1585C84.125 48.5022 84.0312 40.7991 82.9062 33.0491C82.125 27.7366 80.6406 22.596 78.4531 17.6272C76.2656 12.6585 73 8.50221 68.6562 5.15846C65.5 2.90846 62.0312 1.43971 58.25 0.752214C54.4688 0.0334635 50.7031 0.0178385 46.9531 0.705339C41.5469 1.92409 36.8906 4.48659 32.9844 8.39284C29.7969 11.7053 27.0625 15.3772 24.7812 19.4085C24.625 19.6585 24.4844 19.9085 24.3594 20.1585L26.2344 20.8147C26.8906 19.8772 27.5469 18.8772 28.2031 17.8147C30.8906 13.6897 34.0781 10.2991 37.7656 7.64284C41.4844 4.95534 45.6719 3.43971 50.3281 3.09596C57.2969 2.84596 62.8906 4.48659 67.1094 8.01784C71.3594 11.5178 74.4688 16.1272 76.4375 21.846C78.4375 27.5647 79.5625 33.5803 79.8125 39.8928C80.0312 46.1116 79.6562 51.8616 78.6875 57.1428C75.9688 57.6741 73.2344 58.1741 70.4844 58.6428L63.3125 59.9553C59.5625 60.6116 55.7969 61.2522 52.0156 61.8772L49.9531 62.1585C47.1094 62.6272 44.2812 63.0491 41.4688 63.4241C41.125 63.5491 40.9062 63.8772 40.8125 64.4085C40.7188 64.971 40.7344 65.4866 40.8594 65.9553C41.0156 66.4866 41.2656 66.7366 41.6094 66.7053C44.0469 66.1741 46.5312 65.6585 49.0625 65.1585L51.2188 64.7366L61.2031 62.8616C66.8594 61.7053 72.5156 60.7053 78.1719 59.8616C76.2031 69.7678 72.7969 79.3616 67.9531 88.6428C62.7344 98.6741 56.1875 107.471 48.3125 115.033C45 118.19 41.4062 120.627 37.5312 122.346C33.6875 124.065 29.7344 124.768 25.6719 124.455C21.6406 124.143 17.6719 122.518 13.7656 119.58C10.2656 116.768 7.73438 113.362 6.17188 109.362C4.60938 105.393 3.75 101.19 3.59375 96.7522C3.46875 92.346 3.79688 88.0647 4.57812 83.9085C4.64062 83.3772 4.70312 82.9085 4.76562 82.5022C4.89062 81.1585 5.20312 79.4397 5.70312 77.346C6.64062 73.1585 8.40625 69.5803 11 66.6116C11.9688 65.4553 12.1875 64.596 11.6562 64.0335C11.1562 63.5335 10.3438 63.4085 9.21875 63.6585C8.0625 63.971 7.10938 64.7053 6.35938 65.8616C4.26562 70.9866 2.79688 76.4397 1.95312 82.221C1.70312 83.721 1.48438 85.2366 1.29688 86.7678C0.671875 92.2678 0.828125 97.6272 1.76562 102.846C2.73438 108.065 4.75 112.69 7.8125 116.721C10.875 120.752 15.25 123.752 20.9375 125.721C25.6875 127.127 30.4375 127.221 35.1875 126.002C39.9375 124.783 44.2969 122.752 48.2656 119.908C53.2344 116.377 57.6094 112.221 61.3906 107.44C65.1719 102.658 68.5 97.596 71.375 92.2522C76.25 83.221 79.7656 73.6428 81.9219 63.5178C82.2344 62.1116 82.5 60.6897 82.7188 59.2522L83.1875 59.2053Z" fill="black"/>
</svg>
