<svg width="206" height="140" viewBox="0 0 206 140" fill="none" xmlns="http://www.w3.org/2000/svg">
<path id="yi" d="M162.508 81.6584C160.476 88.8459 159.148 96.1116 158.523 103.455C158.054 110.174 158.711 116.924 160.492 123.705C160.804 124.33 161.383 124.783 162.226 125.065C163.07 125.346 163.945 125.377 164.851 125.158C165.789 124.94 166.476 124.549 166.914 123.987C167.32 123.424 167.383 122.83 167.101 122.205C164.258 116.08 162.867 109.815 162.929 103.408C162.961 97.0022 163.883 90.6584 165.695 84.3772C167.695 77.4709 169.383 72.2991 170.758 68.8616C177.476 49.9553 184.867 33.9241 192.929 20.7678C197.554 12.9241 201.195 7.76782 203.851 5.29907C204.601 4.42407 205.07 3.72095 205.258 3.1897C205.445 2.65845 205.336 2.15845 204.929 1.6897C204.429 1.22095 203.867 0.986572 203.242 0.986572C202.648 0.986572 202.101 1.22095 201.601 1.6897C198.508 4.6897 195.711 7.92407 193.211 11.3928C186.023 21.7366 179.992 32.7209 175.117 44.3459C170.242 55.9709 166.179 67.8616 162.929 80.0178C162.773 80.5491 162.633 81.0959 162.508 81.6584ZM52.2576 54.2366C60.0701 49.9553 68.1638 46.3772 76.5388 43.5022C79.6951 34.0022 83.2107 24.6116 87.0857 15.3303L88.0232 13.0334C89.492 9.5647 91.0076 6.1272 92.5701 2.72095C93.1638 1.6272 93.9607 1.0647 94.9607 1.03345C95.9607 1.03345 96.7888 1.40845 97.4451 2.15845C98.0701 2.90845 98.1638 3.89282 97.7263 5.11157C96.6638 7.36157 95.617 9.64282 94.5857 11.9553L93.5545 14.2991C89.5857 23.2678 85.9607 32.3459 82.6795 41.5334L84.6951 40.9709C91.8826 38.8147 99.2263 37.2522 106.726 36.2834C114.226 35.3147 121.664 35.7366 129.039 37.5491C135.07 39.3303 139.586 42.0491 142.586 45.7053C145.617 49.3928 147.429 53.6116 148.023 58.3616C148.586 63.1428 148.226 68.0647 146.945 73.1272C145.664 78.2209 143.742 83.0803 141.179 87.7053C137.398 94.6116 132.476 101.033 126.414 106.971C120.351 112.94 113.554 118.018 106.023 122.205C98.5232 126.393 90.6951 129.252 82.5388 130.783C76.1326 132.283 71.1326 132.674 67.5388 131.955C63.9451 131.205 61.6951 128.377 60.7888 123.471C59.9138 118.565 60.0232 112.737 61.117 105.987C62.0857 99.9866 63.1951 94.0022 64.4451 88.0334L65.4763 83.3459C67.4138 74.6584 69.6326 66.0491 72.1326 57.5178C73.2263 53.8303 74.367 50.1584 75.5545 46.5022L73.5388 47.3459C64.0076 51.5647 54.8826 56.5647 46.1638 62.3459C37.4451 68.1272 29.4451 74.7522 22.1638 82.2209C19.3826 85.0959 16.6795 88.3616 14.0545 92.0178C11.4295 95.6741 9.25758 99.5334 7.53883 103.596C5.82008 107.658 4.92946 111.768 4.86696 115.924C4.80446 120.08 5.97633 124.096 8.38258 127.971C10.1638 130.69 12.5076 132.658 15.4138 133.877C18.3201 135.127 21.367 135.487 24.5545 134.955C25.5857 134.862 26.3201 135.158 26.7576 135.846C27.2263 136.533 27.3513 137.268 27.1326 138.049C26.9138 138.83 26.3045 139.346 25.3045 139.596C18.9295 140.377 13.6638 139.158 9.50758 135.94C5.38258 132.752 2.61696 128.471 1.21071 123.096C-0.226792 117.752 -0.0705423 112.252 1.67946 106.596C4.14821 99.0647 8.08571 92.0334 13.492 85.5022C18.8982 79.0022 25.0232 73.1116 31.867 67.8303C38.7107 62.5803 45.5076 58.0491 52.2576 54.2366ZM97.4451 39.8928C92.1013 40.9241 86.8826 42.3303 81.7888 44.1116C76.4451 59.2991 72.0076 74.7991 68.4763 90.6116L66.9763 97.5959C65.2576 106.033 64.1795 112.205 63.742 116.112C63.6482 124.018 65.367 128.487 68.8982 129.518C72.4295 130.549 78.2888 129.862 86.4763 127.455C94.9451 124.955 102.945 121.018 110.476 115.643C117.976 110.268 124.476 104.002 129.976 96.8459C135.476 89.6897 139.429 82.1897 141.836 74.3459C144.148 66.2522 144.414 59.6428 142.633 54.5178C140.883 49.3928 137.695 45.5491 133.07 42.9866C128.445 40.4241 123.008 38.9397 116.758 38.5334C110.508 38.1272 104.07 38.5803 97.4451 39.8928Z" fill="black"/>
</svg>
