<svg width="135" height="127" viewBox="0 0 135 127" fill="none" xmlns="http://www.w3.org/2000/svg">
<path id="yu" d="M118.786 88.5959C113.567 98.6272 107.021 107.424 99.1456 114.987C95.8331 118.143 92.255 120.58 88.4112 122.299C84.5362 124.018 80.5831 124.721 76.5518 124.408C72.4893 124.096 68.505 122.471 64.5988 119.533C61.0988 116.721 58.5675 113.315 57.005 109.315C55.4425 105.346 54.5831 101.143 54.4269 96.7053C54.3019 92.2991 54.63 88.0178 55.4113 83.8616C56.4425 78.5178 57.9269 73.1428 59.8644 67.7366C61.8331 62.3303 64.3644 57.2522 67.4581 52.5022C68.0519 57.2834 69.4737 61.8303 71.7237 66.1428C73.1925 68.9866 75.1612 71.4709 77.63 73.5959C80.0675 75.7522 82.9112 77.0491 86.1612 77.4866C90.5362 77.8928 94.6925 77.1272 98.63 75.1897C102.567 73.2522 105.833 70.5178 108.427 66.9866C108.833 66.2991 108.864 65.6897 108.521 65.1584C108.146 64.6584 107.646 64.3928 107.021 64.3616C106.396 64.3303 105.896 64.6741 105.521 65.3928C103.896 69.1116 101.302 71.9553 97.7393 73.9241C94.1456 75.8928 90.3331 76.6584 86.3018 76.2209C82.2706 75.5647 78.9268 73.6428 76.2706 70.4553C74.1143 67.8928 72.38 64.7991 71.0675 61.1741C69.7237 57.5803 68.9893 54.0022 68.8643 50.4397C71.1768 47.2209 73.8487 44.3459 76.88 41.8147C77.255 41.5334 77.4737 41.1741 77.5362 40.7366C77.5675 40.2991 77.4425 39.8928 77.1612 39.5178C76.88 39.1428 76.5206 38.9241 76.0831 38.8616C75.6456 38.8303 75.2393 38.9553 74.8643 39.2366C72.8018 40.8928 70.9268 42.7053 69.2393 44.6741C69.8018 40.2991 70.8956 35.7522 72.5206 31.0334C74.1768 26.3459 76.3487 21.9241 79.0362 17.7678C81.7237 13.6428 84.9112 10.2366 88.5987 7.54907C92.3175 4.89282 96.505 3.39282 101.161 3.04907C108.13 2.79907 113.739 4.42407 117.989 7.92407C122.208 11.4553 125.317 16.0803 127.317 21.7991C129.286 27.5178 130.396 33.5334 130.646 39.8459C130.864 46.1897 130.474 52.0491 129.474 57.4241C127.567 68.1741 124.005 78.5647 118.786 88.5959ZM22.7863 61.7834C23.38 61.7209 23.9581 61.6741 24.5206 61.6428C26.6769 61.4866 28.8331 61.3616 30.9894 61.2678L36.8488 61.1272C47.0988 60.9397 54.4425 61.2522 58.88 62.0647C57.5988 65.0334 56.4894 68.0803 55.5519 71.2053C53.8956 76.0803 52.755 81.2522 52.13 86.7209C51.505 92.2209 51.6769 97.5803 52.6456 102.799C53.5831 108.018 55.5831 112.643 58.6456 116.674C61.7081 120.705 66.0831 123.705 71.7706 125.674C76.5206 127.08 81.2706 127.174 86.0206 125.955C90.7706 124.737 95.13 122.705 99.0987 119.862C104.067 116.33 108.442 112.174 112.224 107.393C116.005 102.612 119.333 97.5491 122.208 92.2053C127.083 83.1741 130.599 73.5959 132.755 63.4709C134.911 53.3772 135.239 43.2209 133.739 33.0022C132.958 27.6897 131.474 22.5491 129.286 17.5803C127.099 12.6116 123.833 8.45532 119.489 5.11157C116.333 2.86157 112.864 1.3772 109.083 0.658447C105.302 -0.0290527 101.536 -0.0290527 97.7862 0.658447C92.38 1.8772 87.7237 4.4397 83.8175 8.34595C78.88 13.4709 75.0518 19.4084 72.3331 26.1584C69.5831 32.9397 67.9425 39.8772 67.4113 46.9709L66.1925 48.6116C63.63 52.4553 61.4113 56.4553 59.5363 60.6116L32.3956 59.2991C29.4269 59.2991 26.4425 59.3459 23.4425 59.4397C24.8175 54.6584 26.3175 49.9084 27.9425 45.1897C31.4738 34.5334 36.5206 22.2834 43.0831 8.4397C43.3956 7.6897 43.3488 7.08032 42.9425 6.61157C42.5675 6.11157 42.0519 5.86157 41.3956 5.86157C40.7706 5.83032 40.2706 6.15845 39.8956 6.84595C39.4581 7.8147 39.0363 8.78345 38.63 9.7522C31.0675 27.7834 25.1144 44.2209 20.7706 59.0647C20.7081 59.2209 20.6613 59.3928 20.63 59.5803C14.7238 59.8303 8.81751 60.2522 2.91126 60.8459C1.75501 61.0647 1.06751 61.6116 0.84876 62.4866C0.66126 63.3303 0.833135 64.0959 1.36439 64.7834C1.92689 65.4709 2.77064 65.6897 3.89564 65.4397C9.14564 63.8459 14.4738 62.7209 19.88 62.0647C17.3175 71.0022 15.005 79.9866 12.9425 89.0178L12.1925 92.4397C10.5988 100.69 9.41126 106.768 8.63001 110.674L8.02064 113.721C7.98939 113.783 7.97376 113.846 7.97376 113.908C7.94251 114.94 8.27064 115.674 8.95814 116.112C9.64564 116.549 10.38 116.627 11.1613 116.346C11.9425 116.096 12.4269 115.471 12.6144 114.471C13.2706 108.658 14.4738 100.69 16.2238 90.5647L16.7863 87.2834C18.4425 78.6897 20.4425 70.1897 22.7863 61.7834Z" fill="black"/>
</svg>
