<svg width="66" height="127" viewBox="0 0 66 127" fill="none" xmlns="http://www.w3.org/2000/svg">
<path id="z" d="M15.7941 43.893C15.9191 45.018 15.6066 45.8149 14.8566 46.2837C14.1379 46.7524 13.3723 46.8305 12.5598 46.518C11.7473 46.2055 11.2785 45.4868 11.1535 44.3618C11.1223 40.2055 11.7473 36.2524 13.0285 32.5024L16.0754 33.6743C15.3254 36.9868 15.2316 40.393 15.7941 43.893ZM15.4191 94.4712C13.0754 97.3462 10.9191 100.346 8.95038 103.471C8.88788 103.534 8.84101 103.596 8.80976 103.659C7.49726 105.909 6.29413 108.284 5.20038 110.784C4.10663 113.284 3.62226 115.846 3.74726 118.471C3.84101 119.19 4.13788 119.752 4.63788 120.159C5.13788 120.565 5.68476 120.909 6.27851 121.19C6.37226 121.252 6.45038 121.299 6.51288 121.331C8.70038 122.237 10.9816 122.643 13.3566 122.549C15.7316 122.487 18.0598 122.159 20.341 121.565C29.9973 118.784 38.2785 113.737 45.1848 106.424C52.091 99.1118 56.8254 90.6274 59.3879 80.9712C60.5441 76.3462 61.2004 71.6274 61.3566 66.8149C61.3879 65.7524 61.2629 64.7212 60.9816 63.7212L60.0441 61.2368C58.7629 58.768 57.1379 56.5649 55.1691 54.6274C50.7629 50.1899 45.6379 46.8305 39.7941 44.5493C38.5754 44.0493 37.1379 43.6274 35.4816 43.2837C33.8254 42.9399 32.341 43.018 31.0285 43.518C30.8098 43.6743 30.5754 43.8305 30.3254 43.9868V43.9399C30.2629 44.0024 30.2004 44.0649 30.1379 44.1274C29.1691 44.4712 28.3566 44.4087 27.7004 43.9399C27.0754 43.4712 26.7316 42.8462 26.6691 42.0649C26.6379 41.2524 27.0441 40.5649 27.8879 40.0024C31.1066 38.2212 34.1535 36.1899 37.0285 33.9087C45.9348 27.0337 52.8566 18.5649 57.7941 8.50241C58.6379 6.12741 58.4035 4.59616 57.091 3.90866C55.7785 3.18991 54.0754 2.95553 51.9816 3.20553C49.9191 3.42428 48.1535 3.79928 46.6848 4.33053C39.3098 6.76803 32.7629 10.643 27.0441 15.9555C23.6691 19.0805 20.8879 22.6743 18.7004 26.7368C17.4816 29.018 16.6066 31.3305 16.0754 33.6743L13.0285 32.5024C13.466 31.1899 13.9973 29.893 14.6223 28.6118C16.9973 23.768 20.1691 19.4243 24.1379 15.5805C28.1066 11.7368 32.4504 8.51803 37.1691 5.92428C39.0441 4.86178 41.3879 3.76803 44.2004 2.64303C47.0441 1.51803 49.8723 0.846158 52.6848 0.627408C55.4973 0.377408 57.8098 1.03366 59.6223 2.59616C60.716 3.90866 61.1223 5.43991 60.841 7.18991C60.591 8.93991 59.9816 10.7368 59.0129 12.5805C58.0441 14.393 57.0598 16.0649 56.0598 17.5962C55.5598 18.3774 55.1223 19.0805 54.7473 19.7055C49.466 27.643 43.0441 34.518 35.4816 40.3305C36.6691 40.6743 37.841 41.0649 38.9973 41.5024C39.591 41.6899 40.1691 41.8774 40.7316 42.0649C45.1691 43.7837 49.5441 46.1274 53.8566 49.0962C58.1691 52.0337 61.5285 55.6274 63.9348 59.8774L65.1535 62.643C65.8098 65.1743 65.9816 67.7524 65.6691 70.3774C65.1691 77.7212 63.4348 84.7368 60.466 91.4243C57.4973 98.143 53.4348 104.127 48.2785 109.377C43.591 114.065 38.2629 117.956 32.2941 121.049C26.3254 124.143 19.966 125.799 13.216 126.018C11.6535 126.049 9.93476 125.831 8.05976 125.362C6.21601 124.924 4.57538 124.19 3.13788 123.159C1.73163 122.127 0.872256 120.721 0.559756 118.94C0.403506 115.002 1.48163 110.831 3.79413 106.424C6.10663 102.049 8.93476 97.893 12.2785 93.9555C12.591 93.5805 12.9191 93.2055 13.2629 92.8305C15.2316 90.268 16.9035 87.3618 18.2785 84.1118C18.7785 83.1118 19.4348 82.6118 20.2473 82.6118C21.091 82.6118 21.7473 82.9555 22.216 83.643C22.6848 84.3618 22.6848 85.2212 22.216 86.2212C20.091 88.8462 17.8254 91.5962 15.4191 94.4712Z" fill="black"/>
</svg>
