<svg width="173" height="112" viewBox="0 0 173 112" fill="none" xmlns="http://www.w3.org/2000/svg">
<path id="zh" d="M90.0403 31.8461C83.6653 39.9711 78.4622 46.4242 74.4309 51.2054C69.6809 56.7992 64.8372 62.2992 59.8997 67.7054C56.7122 72.8304 53.2278 77.7679 49.4466 82.5179C42.9466 90.6742 35.5247 97.8148 27.1809 103.94C24.7747 105.659 22.1497 107.19 19.3059 108.534C16.4622 109.877 13.5403 110.346 10.5403 109.94C9.41531 109.721 8.38406 109.237 7.44656 108.487C6.54031 107.737 5.86843 106.815 5.43093 105.721C4.99343 104.377 4.83718 102.987 4.96218 101.549C5.11843 100.143 5.36843 98.7679 5.71218 97.4242C8.36843 87.1117 13.0872 77.8304 19.8684 69.5804C20.2122 69.2054 20.6184 69.0023 21.0872 68.9711C21.5559 68.9398 22.0091 69.0804 22.4466 69.3929C22.8528 69.7367 23.0559 70.1742 23.0559 70.7054C23.0872 71.2054 22.9153 71.6742 22.5403 72.1117C18.6966 76.1429 15.4466 80.6742 12.7903 85.7054C10.1341 90.7367 8.32156 96.0336 7.35281 101.596C7.22781 102.721 7.33718 103.815 7.68093 104.877C8.39968 106.377 9.46218 107.268 10.8684 107.549C12.2434 107.799 13.6966 107.705 15.2278 107.268C16.7591 106.799 18.1341 106.237 19.3528 105.58C24.0403 102.893 28.5872 99.4711 32.9934 95.3148C37.3684 91.1586 41.4778 86.7054 45.3216 81.9554C49.1653 77.1742 52.6028 72.5179 55.6341 67.9867C58.6028 63.5179 61.3216 58.8304 63.7903 53.9242C66.2591 49.0179 68.1184 43.9242 69.3684 38.6429C70.5872 33.3929 70.8216 28.0179 70.0716 22.5179C69.8216 20.9867 69.3372 19.5336 68.6184 18.1586C67.8684 16.8148 66.8372 15.7211 65.5247 14.8773C64.1184 14.1586 62.6809 13.5961 61.2122 13.1898C56.8372 12.1586 52.4153 12.1429 47.9466 13.1429C43.4466 14.1117 39.1028 15.6742 34.9153 17.8304C30.7278 19.9867 26.8841 22.3304 23.3841 24.8617C21.2903 26.3929 18.8059 28.3929 15.9309 30.8617C13.0559 33.3304 10.4778 35.9867 8.19656 38.8304C5.88406 41.6429 4.54031 44.3461 4.16531 46.9398C4.00906 47.9398 3.57156 48.5179 2.85281 48.6742C2.13406 48.8617 1.50906 48.6898 0.977808 48.1586C0.415308 47.6586 0.305933 46.9398 0.649683 46.0023C3.21218 41.6273 6.64968 37.2523 10.9622 32.8773C15.2747 28.5023 20.0872 24.5179 25.3997 20.9242C30.7122 17.3304 36.1653 14.5336 41.7591 12.5336C47.3528 10.5023 52.7278 9.67418 57.8841 10.0492C60.3841 10.2679 62.7903 10.8617 65.1028 11.8304C68.0091 13.0179 70.0872 14.9242 71.3372 17.5492C72.5559 20.1429 73.2278 22.9398 73.3528 25.9398C73.6341 31.2836 73.1184 36.5179 71.8059 41.6429C70.4622 46.7992 68.6028 51.7211 66.2278 56.4086C71.7591 50.3148 77.0247 44.0336 82.0247 37.5648C84.0872 34.9086 88.0872 29.7679 94.0247 22.1429C95.6497 18.3304 97.4309 14.5492 99.3684 10.7992C99.9309 9.92418 100.618 9.51793 101.431 9.58043C102.275 9.64293 102.931 10.0023 103.4 10.6586C103.9 11.2836 103.947 12.0804 103.54 13.0492C97.7278 23.7054 92.9466 34.8148 89.1966 46.3773C85.6653 57.2836 82.6028 68.2992 80.0091 79.4242C88.6341 68.3304 95.4466 59.8148 100.447 53.8773C104.822 48.7211 109.29 43.6429 113.853 38.6429C115.978 35.5804 118.228 32.5961 120.603 29.6898C127.509 21.1586 135.431 13.6898 144.368 7.28356C146.931 5.47106 149.728 3.86168 152.759 2.45543C155.79 1.04918 158.9 0.549182 162.087 0.955432C163.306 1.20543 164.415 1.72106 165.415 2.50231C166.384 3.28356 167.103 4.25231 167.572 5.40856C168.04 6.81481 168.197 8.26793 168.04 9.76793C167.915 11.2679 167.65 12.7211 167.243 14.1273C164.4 24.9398 159.368 34.6586 152.15 43.2836C151.806 43.6898 151.368 43.9086 150.837 43.9398C150.337 43.9711 149.868 43.8304 149.431 43.5179C148.993 43.1117 148.759 42.6429 148.728 42.1117C148.697 41.5804 148.884 41.0961 149.29 40.6586C153.415 36.4398 156.884 31.6898 159.697 26.4086C162.54 21.1273 164.478 15.5648 165.509 9.72106C165.634 8.53356 165.525 7.37731 165.181 6.25231C164.4 4.68981 163.259 3.76793 161.759 3.48668C160.29 3.20543 158.743 3.29918 157.118 3.76793C155.462 4.26793 153.993 4.86168 152.712 5.54918C147.712 8.36168 142.868 11.9398 138.181 16.2836C133.493 20.6586 129.087 25.3461 124.962 30.3461C120.868 35.3461 117.197 40.2211 113.947 44.9711C110.79 49.6586 107.9 54.5804 105.275 59.7367C102.618 64.8929 100.634 70.2211 99.3216 75.7211C98.0091 81.2523 97.7434 86.8929 98.5247 92.6429C98.8059 94.2679 99.3372 95.7992 100.118 97.2367C100.9 98.6429 102.009 99.7836 103.447 100.659C104.915 101.409 106.447 102.002 108.04 102.44C112.697 103.502 117.415 103.518 122.197 102.487C126.978 101.455 131.603 99.8148 136.072 97.5648C140.54 95.3148 144.665 92.8617 148.447 90.2054C150.665 88.5804 153.306 86.4711 156.368 83.8773C159.431 81.3148 162.181 78.5492 164.618 75.5804C167.056 72.5804 168.493 69.7367 168.931 67.0492C169.087 66.0179 169.54 65.4086 170.29 65.2211C171.072 65.0336 171.743 65.2054 172.306 65.7367C172.9 66.2679 173.025 67.0336 172.681 68.0336C169.931 72.6273 166.259 77.2054 161.665 81.7679C157.072 86.3617 151.931 90.5492 146.243 94.3304C140.587 98.0804 134.775 101.018 128.806 103.143C122.837 105.237 117.087 106.096 111.556 105.721C108.9 105.502 106.337 104.893 103.868 103.893C100.743 102.643 98.5403 100.643 97.2591 97.8929C95.9466 95.1429 95.2278 92.1898 95.1028 89.0336C94.7903 83.4711 95.3372 77.9867 96.7434 72.5804C98.1497 67.1742 100.118 62.0179 102.65 57.1117C103.4 55.6429 104.181 54.1898 104.993 52.7523C100.806 57.5648 96.7591 62.4867 92.8528 67.5179C90.5716 70.4242 86.5559 75.3929 80.8059 82.4242L78.6966 85.2367L78.1341 87.7679L77.6653 89.9242C76.1966 96.9242 74.8216 103.94 73.5403 110.971C73.4778 111.284 73.3059 111.534 73.0247 111.721C72.7747 111.909 72.4934 111.971 72.1809 111.909C71.8372 111.846 71.5716 111.69 71.3841 111.44C71.2278 111.19 71.1653 110.893 71.1966 110.549C72.3216 103.455 73.5559 96.3617 74.8997 89.2679L75.3216 86.9711C77.8528 73.8461 80.9622 60.8461 84.6497 47.9711C86.2122 42.5336 88.0091 37.1586 90.0403 31.8461Z" fill="black"/>
</svg>
